<?xml version="1.0" encoding="UTF-8" standalone="no"?>
<!DOCTYPE svg PUBLIC "-//W3C//DTD SVG 1.1//EN" "http://www.w3.org/Graphics/SVG/1.1/DTD/svg11.dtd">
<svg width="100%" height="100%" viewBox="0 0 1024 1024" version="1.1" xmlns="http://www.w3.org/2000/svg" xmlns:xlink="http://www.w3.org/1999/xlink" xml:space="preserve" xmlns:serif="http://www.serif.com/" style="fill-rule:evenodd;clip-rule:evenodd;stroke-linejoin:round;stroke-miterlimit:2;">
    <g transform="matrix(-1.54167e-05,352.678,352.678,1.54167e-05,528.091,36.0542)">
        <g>
            <g transform="matrix(1.11428,3.22209e-10,-3.22209e-10,1.11428,1.63794,-1.24828)">
                <path d="M0.138,-0.131L0.156,-0.133C0.154,-0.157 0.153,-0.177 0.153,-0.193C0.153,-0.212 0.159,-0.221 0.17,-0.221C0.183,-0.221 0.194,-0.21 0.205,-0.189C0.212,-0.173 0.217,-0.156 0.219,-0.14L0.446,-0.147C0.465,-0.148 0.489,-0.148 0.517,-0.147C0.55,-0.145 0.571,-0.144 0.579,-0.142C0.61,-0.137 0.625,-0.125 0.625,-0.107C0.625,-0.101 0.624,-0.096 0.622,-0.092C0.616,-0.089 0.611,-0.087 0.609,-0.087C0.618,-0.069 0.623,-0.045 0.623,-0.014C0.623,0.097 0.586,0.17 0.512,0.205C0.489,0.215 0.466,0.221 0.443,0.221C0.371,0.221 0.308,0.188 0.253,0.121C0.203,0.061 0.173,-0.006 0.163,-0.081C0.144,-0.079 0.13,-0.079 0.122,-0.079C0.105,-0.079 0.096,-0.086 0.096,-0.098C0.096,-0.116 0.11,-0.127 0.138,-0.131ZM0.564,-0.096L0.23,-0.085C0.24,-0.021 0.262,0.037 0.294,0.09C0.335,0.155 0.383,0.188 0.437,0.188C0.483,0.188 0.518,0.163 0.544,0.115C0.565,0.076 0.575,0.032 0.575,-0.018C0.575,-0.032 0.571,-0.058 0.564,-0.096Z" style="fill:url(#_Linear1);fill-rule:nonzero;"/>
            </g>
            <g transform="matrix(1.11428,3.22094e-10,-3.22094e-10,1.11428,1.63794,-0.890747)">
                <path d="M0.377,-0.048C0.38,-0.07 0.386,-0.081 0.396,-0.081C0.401,-0.081 0.405,-0.079 0.408,-0.075C0.411,-0.071 0.412,-0.066 0.411,-0.061C0.477,-0.096 0.528,-0.113 0.562,-0.113C0.602,-0.113 0.622,-0.102 0.622,-0.08C0.622,-0.062 0.606,-0.04 0.574,-0.017C0.543,0.006 0.519,0.022 0.503,0.033L0.531,0.033C0.563,-0.003 0.599,-0.032 0.638,-0.055C0.684,-0.082 0.728,-0.095 0.769,-0.095C0.791,-0.095 0.811,-0.089 0.83,-0.077C0.85,-0.063 0.86,-0.046 0.86,-0.026C0.86,0.047 0.778,0.083 0.614,0.083C0.586,0.083 0.551,0.083 0.51,0.081C0.489,0.1 0.477,0.11 0.474,0.112C0.468,0.112 0.464,0.109 0.463,0.101C0.464,0.094 0.467,0.087 0.474,0.079C0.454,0.08 0.438,0.08 0.425,0.08C0.405,0.08 0.394,0.08 0.391,0.078C0.386,0.074 0.384,0.067 0.384,0.059C0.384,0.052 0.388,0.048 0.396,0.046C0.434,0.037 0.471,0.023 0.507,0.002C0.55,-0.022 0.579,-0.049 0.595,-0.078C0.556,-0.078 0.499,-0.057 0.424,-0.015L0.384,0.008C0.38,0.008 0.378,0.004 0.376,-0.004C0.376,-0.01 0.375,-0.016 0.375,-0.023C0.375,-0.03 0.376,-0.039 0.377,-0.048ZM0.817,-0.059C0.803,-0.066 0.789,-0.069 0.774,-0.069C0.737,-0.069 0.698,-0.058 0.656,-0.035C0.619,-0.016 0.586,0.009 0.556,0.039C0.577,0.042 0.6,0.043 0.625,0.043C0.769,0.043 0.842,0.02 0.842,-0.025C0.842,-0.039 0.833,-0.05 0.817,-0.059Z" style="fill:url(#_Linear2);fill-rule:nonzero;"/>
            </g>
            <g transform="matrix(1.11428,3.22209e-10,-3.22209e-10,1.11428,1.63794,-0.675757)">
                <path d="M0.251,0.002C0.261,0.002 0.274,0.004 0.291,0.01C0.301,0.013 0.311,0.016 0.321,0.02C0.362,0.032 0.397,0.039 0.426,0.039C0.448,0.039 0.478,0.035 0.515,0.028C0.56,0.019 0.59,0.008 0.604,-0.005C0.562,-0.019 0.505,-0.026 0.433,-0.026C0.422,-0.026 0.407,-0.025 0.386,-0.023C0.366,-0.021 0.35,-0.02 0.34,-0.02C0.331,-0.02 0.323,-0.024 0.316,-0.032C0.31,-0.04 0.307,-0.049 0.307,-0.058C0.307,-0.07 0.316,-0.075 0.334,-0.075C0.394,-0.075 0.452,-0.072 0.508,-0.064C0.596,-0.053 0.64,-0.035 0.64,-0.01C0.64,0.015 0.607,0.036 0.541,0.054C0.489,0.068 0.444,0.075 0.405,0.075C0.377,0.075 0.345,0.072 0.309,0.065C0.256,0.054 0.229,0.039 0.229,0.019C0.229,0.007 0.237,0.002 0.251,0.002Z" style="fill:url(#_Linear3);fill-rule:nonzero;"/>
            </g>
            <g transform="matrix(1.11428,3.22094e-10,-3.22094e-10,1.11428,1.63794,-0.475868)">
                <path d="M0.385,-0.078C0.427,-0.097 0.467,-0.106 0.507,-0.106C0.535,-0.106 0.561,-0.101 0.585,-0.091C0.617,-0.078 0.632,-0.057 0.632,-0.03C0.632,-0.006 0.616,0.022 0.583,0.055C0.55,0.089 0.523,0.106 0.502,0.106C0.499,0.106 0.496,0.105 0.492,0.102C0.489,0.099 0.488,0.096 0.488,0.093C0.488,0.086 0.497,0.077 0.517,0.065C0.547,0.048 0.567,0.035 0.576,0.027C0.597,0.01 0.608,-0.007 0.608,-0.022C0.608,-0.042 0.597,-0.055 0.575,-0.061C0.564,-0.064 0.55,-0.065 0.533,-0.065C0.505,-0.065 0.478,-0.062 0.454,-0.056C0.449,-0.036 0.434,-0.015 0.41,0.008C0.385,0.033 0.363,0.045 0.344,0.045C0.334,0.045 0.325,0.041 0.319,0.033C0.312,0.025 0.309,0.016 0.309,0.005C0.309,-0.028 0.334,-0.056 0.385,-0.078ZM0.377,-0.024C0.351,-0.01 0.339,0.001 0.339,0.011C0.339,0.013 0.34,0.014 0.342,0.014C0.353,0.014 0.368,0.006 0.388,-0.009C0.403,-0.021 0.416,-0.033 0.426,-0.045C0.414,-0.042 0.397,-0.035 0.377,-0.024Z" style="fill:url(#_Linear4);fill-rule:nonzero;"/>
            </g>
            <g transform="matrix(1.11428,3.22094e-10,-3.22094e-10,1.11428,1.63794,-0.287844)">
                <path d="M0.32,-0.103C0.335,-0.109 0.349,-0.112 0.362,-0.112C0.401,-0.112 0.429,-0.102 0.449,-0.083C0.45,-0.082 0.467,-0.084 0.501,-0.087C0.548,-0.091 0.584,-0.093 0.609,-0.091C0.636,-0.088 0.65,-0.08 0.65,-0.065C0.65,-0.063 0.649,-0.061 0.647,-0.06C0.642,-0.057 0.613,-0.055 0.559,-0.054C0.497,-0.054 0.462,-0.053 0.454,-0.052C0.454,-0.041 0.451,-0.031 0.446,-0.023C0.464,-0.026 0.48,-0.028 0.494,-0.028C0.583,-0.028 0.628,-0.005 0.628,0.042C0.628,0.059 0.613,0.075 0.584,0.091C0.557,0.105 0.535,0.112 0.515,0.112C0.5,0.112 0.492,0.106 0.492,0.096C0.492,0.094 0.493,0.092 0.493,0.09C0.495,0.085 0.5,0.082 0.509,0.08L0.548,0.07C0.585,0.061 0.603,0.053 0.603,0.045C0.603,0.037 0.593,0.031 0.573,0.026C0.529,0.017 0.482,0.017 0.43,0.027C0.414,0.03 0.403,0.031 0.395,0.031C0.383,0.031 0.377,0.019 0.377,-0.004C0.377,-0.009 0.385,-0.018 0.4,-0.028C0.42,-0.041 0.43,-0.049 0.433,-0.051C0.388,-0.047 0.361,-0.045 0.351,-0.045C0.311,-0.045 0.291,-0.056 0.291,-0.076C0.291,-0.087 0.301,-0.096 0.32,-0.103ZM0.374,-0.088C0.35,-0.088 0.335,-0.084 0.328,-0.075L0.344,-0.075C0.371,-0.077 0.393,-0.079 0.41,-0.081C0.397,-0.086 0.385,-0.088 0.374,-0.088Z" style="fill:url(#_Linear5);fill-rule:nonzero;"/>
            </g>
            <g transform="matrix(1.11428,3.22209e-10,-3.22209e-10,1.11428,1.63794,-0.075707)">
                <path d="M0.277,-0.048C0.288,-0.06 0.298,-0.067 0.308,-0.067C0.316,-0.067 0.331,-0.065 0.353,-0.06C0.369,-0.068 0.387,-0.077 0.409,-0.085C0.436,-0.095 0.455,-0.1 0.468,-0.1C0.48,-0.1 0.487,-0.096 0.487,-0.087C0.487,-0.078 0.472,-0.07 0.442,-0.063C0.421,-0.058 0.404,-0.054 0.394,-0.051L0.471,-0.028C0.52,-0.07 0.558,-0.091 0.585,-0.091C0.6,-0.091 0.613,-0.088 0.623,-0.08C0.635,-0.071 0.64,-0.06 0.64,-0.045C0.64,-0.026 0.631,-0.008 0.611,0.01C0.592,0.028 0.573,0.036 0.554,0.036C0.546,0.036 0.519,0.031 0.471,0.022C0.46,0.03 0.449,0.042 0.437,0.057C0.425,0.074 0.415,0.087 0.41,0.096C0.407,0.099 0.405,0.1 0.403,0.1C0.393,0.1 0.388,0.097 0.388,0.09C0.388,0.084 0.394,0.07 0.406,0.048C0.418,0.026 0.427,0.014 0.432,0.011C0.369,-0.006 0.335,-0.015 0.329,-0.015C0.321,-0.015 0.31,-0.012 0.297,-0.006C0.284,-0.001 0.276,0.002 0.274,0.002C0.264,0.002 0.26,-0.003 0.26,-0.014C0.26,-0.024 0.266,-0.035 0.277,-0.048ZM0.604,-0.062C0.601,-0.063 0.599,-0.063 0.596,-0.063C0.572,-0.063 0.543,-0.048 0.508,-0.017C0.529,-0.007 0.548,-0.003 0.563,-0.003C0.578,-0.003 0.591,-0.007 0.601,-0.015C0.614,-0.024 0.62,-0.035 0.62,-0.047C0.62,-0.055 0.615,-0.06 0.604,-0.062Z" style="fill:url(#_Linear6);fill-rule:nonzero;"/>
            </g>
            <g transform="matrix(1.11428,3.22209e-10,-3.22209e-10,1.11428,1.63794,0.223988)">
                <path d="M0.219,0.079L0.334,0.075C0.335,0.066 0.335,0.054 0.334,0.037C0.333,0.019 0.332,0.007 0.332,-0.001C0.288,0.002 0.257,0.003 0.24,0.004C0.214,0.005 0.201,-0.001 0.201,-0.015C0.201,-0.023 0.204,-0.032 0.21,-0.042C0.216,-0.054 0.223,-0.06 0.23,-0.06C0.234,-0.06 0.237,-0.057 0.239,-0.051C0.241,-0.045 0.242,-0.042 0.244,-0.042C0.253,-0.042 0.268,-0.043 0.288,-0.045C0.308,-0.047 0.322,-0.048 0.333,-0.047C0.333,-0.102 0.338,-0.13 0.348,-0.13C0.359,-0.13 0.364,-0.116 0.365,-0.09L0.364,-0.049C0.402,-0.051 0.43,-0.051 0.449,-0.05C0.516,-0.052 0.552,-0.053 0.558,-0.053C0.593,-0.053 0.613,-0.038 0.617,-0.008C0.617,-0.006 0.616,-0.005 0.614,-0.005L0.367,-0.001L0.367,0.072C0.399,0.067 0.476,0.064 0.6,0.064C0.604,0.064 0.611,0.064 0.62,0.063C0.629,0.063 0.636,0.062 0.64,0.062C0.677,0.062 0.695,0.074 0.695,0.097L0.695,0.101C0.62,0.101 0.51,0.105 0.366,0.115C0.362,0.118 0.358,0.12 0.353,0.12C0.348,0.12 0.344,0.119 0.339,0.116C0.317,0.116 0.284,0.118 0.242,0.122C0.198,0.127 0.165,0.13 0.145,0.13C0.132,0.13 0.126,0.12 0.126,0.102C0.126,0.091 0.157,0.083 0.219,0.079Z" style="fill:url(#_Linear7);fill-rule:nonzero;"/>
            </g>
            <g transform="matrix(1.11428,3.22209e-10,-3.22209e-10,1.11428,1.63794,0.525369)">
                <path d="M0.36,0.021C0.372,-0.018 0.4,-0.056 0.443,-0.093C0.488,-0.133 0.529,-0.153 0.567,-0.153C0.587,-0.153 0.605,-0.149 0.622,-0.142C0.644,-0.132 0.655,-0.118 0.655,-0.1C0.655,-0.077 0.638,-0.051 0.604,-0.022C0.577,0.001 0.549,0.019 0.521,0.031C0.548,0.03 0.571,0.034 0.591,0.042C0.616,0.053 0.629,0.07 0.63,0.095C0.629,0.105 0.613,0.118 0.582,0.133C0.554,0.147 0.533,0.153 0.519,0.153C0.509,0.153 0.503,0.149 0.503,0.14C0.503,0.131 0.518,0.121 0.548,0.11C0.579,0.099 0.597,0.092 0.602,0.09C0.587,0.085 0.568,0.083 0.547,0.083C0.525,0.083 0.494,0.087 0.454,0.094C0.418,0.1 0.391,0.104 0.373,0.105C0.364,0.105 0.359,0.098 0.359,0.084C0.359,0.079 0.36,0.077 0.36,0.075C0.357,0.067 0.354,0.062 0.353,0.058L0.353,0.056C0.353,0.048 0.355,0.036 0.36,0.021ZM0.597,-0.118C0.558,-0.118 0.518,-0.099 0.477,-0.061C0.445,-0.03 0.418,0.006 0.397,0.048C0.48,0.01 0.525,-0.011 0.529,-0.013C0.594,-0.044 0.627,-0.074 0.627,-0.103C0.627,-0.113 0.617,-0.118 0.597,-0.118Z" style="fill:url(#_Linear8);fill-rule:nonzero;"/>
            </g>
            <g transform="matrix(1.11428,3.22094e-10,-3.22094e-10,1.11428,1.63794,0.758649)">
                <path d="M0.383,-0.071C0.458,-0.071 0.508,-0.07 0.534,-0.067C0.568,-0.064 0.591,-0.058 0.604,-0.049C0.614,-0.043 0.618,-0.034 0.617,-0.024C0.616,-0.02 0.612,-0.017 0.606,-0.016C0.586,-0.016 0.549,-0.011 0.498,-0.002C0.437,0.009 0.4,0.017 0.387,0.022C0.406,0.022 0.503,0.025 0.678,0.032C0.688,0.032 0.692,0.034 0.692,0.039C0.692,0.044 0.684,0.049 0.667,0.056C0.638,0.066 0.582,0.071 0.499,0.071C0.472,0.071 0.443,0.071 0.412,0.07C0.402,0.069 0.39,0.07 0.376,0.07C0.357,0.071 0.345,0.071 0.34,0.071C0.333,0.071 0.328,0.069 0.326,0.064C0.32,0.047 0.321,0.033 0.33,0.023C0.333,0.018 0.341,0.014 0.352,0.009C0.372,0.001 0.398,-0.007 0.43,-0.014C0.446,-0.018 0.472,-0.023 0.509,-0.03C0.481,-0.031 0.465,-0.031 0.461,-0.032C0.411,-0.032 0.364,-0.029 0.319,-0.023C0.316,-0.023 0.31,-0.021 0.301,-0.018C0.291,-0.015 0.285,-0.013 0.281,-0.013C0.274,-0.013 0.271,-0.016 0.271,-0.021L0.271,-0.022C0.271,-0.055 0.308,-0.071 0.383,-0.071Z" style="fill:url(#_Linear9);fill-rule:nonzero;"/>
            </g>
            <g transform="matrix(1.11428,3.22094e-10,-3.22094e-10,1.11428,1.63794,1.02281)">
                <path d="M0.145,0.046C0.151,0.036 0.182,0.028 0.238,0.021C0.28,0.016 0.316,0.014 0.347,0.014C0.345,0.007 0.344,0.001 0.344,-0.006C0.344,-0.042 0.37,-0.076 0.421,-0.11C0.469,-0.141 0.51,-0.156 0.547,-0.156C0.57,-0.156 0.59,-0.152 0.607,-0.145C0.629,-0.134 0.64,-0.119 0.64,-0.098C0.64,-0.058 0.6,-0.02 0.52,0.015C0.539,0.018 0.561,0.026 0.585,0.038C0.612,0.051 0.626,0.067 0.626,0.087C0.626,0.105 0.611,0.122 0.582,0.137C0.557,0.15 0.534,0.156 0.514,0.156C0.494,0.156 0.484,0.15 0.484,0.137C0.484,0.13 0.501,0.124 0.535,0.117C0.571,0.11 0.593,0.1 0.601,0.088C0.602,0.086 0.6,0.084 0.597,0.083C0.579,0.078 0.559,0.074 0.535,0.072C0.501,0.069 0.469,0.068 0.437,0.068C0.405,0.068 0.314,0.073 0.163,0.083C0.149,0.084 0.143,0.076 0.143,0.06C0.143,0.055 0.143,0.051 0.145,0.046ZM0.611,-0.114C0.604,-0.117 0.597,-0.119 0.589,-0.119C0.5,-0.119 0.429,-0.076 0.376,0.011L0.377,0.011C0.415,0.011 0.455,0.003 0.498,-0.013C0.519,-0.021 0.537,-0.029 0.554,-0.039C0.598,-0.064 0.621,-0.083 0.623,-0.098L0.623,-0.099C0.623,-0.106 0.619,-0.111 0.611,-0.114Z" style="fill:url(#_Linear10);fill-rule:nonzero;"/>
            </g>
            <g transform="matrix(1.11428,3.22209e-10,-3.22209e-10,1.11428,1.63794,1.29186)">
                <path d="M0.277,-0.048C0.288,-0.061 0.298,-0.067 0.308,-0.067C0.316,-0.067 0.331,-0.065 0.353,-0.06C0.369,-0.068 0.387,-0.077 0.409,-0.085C0.436,-0.095 0.455,-0.1 0.468,-0.1C0.48,-0.1 0.487,-0.096 0.487,-0.087C0.487,-0.078 0.472,-0.07 0.442,-0.063C0.421,-0.058 0.404,-0.054 0.394,-0.051L0.471,-0.028C0.52,-0.07 0.558,-0.091 0.585,-0.091C0.6,-0.091 0.613,-0.088 0.623,-0.08C0.635,-0.071 0.64,-0.06 0.64,-0.045C0.64,-0.026 0.631,-0.008 0.611,0.01C0.592,0.028 0.573,0.036 0.554,0.036C0.546,0.036 0.519,0.031 0.471,0.022C0.46,0.03 0.449,0.042 0.437,0.057C0.425,0.074 0.415,0.087 0.41,0.096C0.407,0.099 0.405,0.1 0.403,0.1C0.393,0.1 0.388,0.097 0.388,0.09C0.388,0.084 0.394,0.07 0.406,0.048C0.418,0.026 0.427,0.014 0.432,0.011C0.369,-0.006 0.335,-0.015 0.329,-0.015C0.321,-0.015 0.31,-0.012 0.297,-0.006C0.284,-0.001 0.276,0.002 0.274,0.002C0.264,0.002 0.26,-0.003 0.26,-0.014C0.26,-0.024 0.266,-0.035 0.277,-0.048ZM0.604,-0.062C0.601,-0.063 0.599,-0.063 0.596,-0.063C0.572,-0.063 0.543,-0.048 0.508,-0.017C0.529,-0.007 0.548,-0.003 0.563,-0.003C0.578,-0.003 0.591,-0.007 0.601,-0.015C0.614,-0.024 0.62,-0.035 0.62,-0.047C0.62,-0.055 0.615,-0.061 0.604,-0.062Z" style="fill:url(#_Linear11);fill-rule:nonzero;"/>
            </g>
            <g transform="matrix(-4.80714e-10,0.010997,0.010997,4.80714e-10,1.16925,0.839609)">
                <path d="M0,-2.674C-16.174,25.086 -34.191,34.698 -34.191,34.698C-34.191,34.698 -58.765,53.291 -70.26,35.826C-74.956,24.182 -74.333,13.597 -67.004,3.433C-61.433,-4.293 -51.424,-16.076 -57.999,-26.279C-46.009,-23.854 -49.137,-1.457 -54.888,11.898C-42.361,4.287 -34.227,-6.534 -30.734,-20.742C-27.658,-33.286 -42.799,-45.266 -34.434,-50.152C-32.463,-44.937 -25.012,-38.237 -23.75,-28.008C-22.686,-19.406 -26.902,-13.195 -29.225,-4.805C-24.039,-11.766 -16.906,-20.742 -17.908,-27.254C-19.152,-40.926 -19.619,-55.965 -14.664,-55.918C-13.564,-48.682 -11.396,-31.731 -11.059,-27.519C-10.303,-18.098 -19.648,-4.621 -20.922,-0.893C-16.934,-6.177 -9.986,-13.339 -7.549,-24.113C-6.465,-28.902 -11.963,-49.431 -6.441,-51.471C-4.393,-45.755 -1.199,-26.914 -1.562,-21.947C-2.201,-13.24 -10.844,-1.902 -12.232,0.467C1.043,-7.254 0.059,-28.164 2.713,-24.073C4.072,-19.631 4.16,-9.819 0,-2.674" style="fill:rgb(109,82,86);fill-rule:nonzero;"/>
            </g>
            <g transform="matrix(-4.80714e-10,0.010997,0.010997,4.80714e-10,0.745859,-0.0631203)">
                <path d="M0,74.327C-11.501,91.792 -36.075,73.198 -36.075,73.198C-36.075,73.198 -54.092,63.587 -70.266,35.827C-74.426,28.682 -74.339,18.869 -72.974,14.427C-70.317,10.336 -71.309,31.246 -58.033,38.967C-59.422,36.599 -68.064,25.26 -68.698,16.553C-69.067,11.586 -65.875,-7.255 -63.823,-12.97C-58.304,-10.93 -63.8,9.599 -62.717,14.387C-60.28,25.161 -53.331,32.324 -49.344,37.608C-50.617,33.879 -59.964,20.403 -59.203,10.982C-58.868,6.77 -56.696,-10.181 -55.602,-17.418C-50.641,-17.465 -51.113,-2.425 -52.357,11.246C-53.36,17.758 -46.228,26.735 -41.041,33.696C-43.363,25.305 -47.581,19.094 -46.515,10.493C-45.248,0.264 -37.804,-6.436 -35.833,-11.651C-27.467,-6.765 -42.609,5.214 -39.532,17.758C-36.04,31.966 -27.904,42.787 -15.378,50.399C-21.123,37.043 -24.257,14.647 -12.267,12.221C-18.841,22.424 -8.827,34.207 -3.262,41.934C4.073,52.098 4.696,62.682 0,74.327" style="fill:rgb(109,82,86);fill-rule:nonzero;"/>
            </g>
            <g transform="matrix(3.22432,-0.0207997,-0.0207997,-3.22432,-0.320168,0.675013)">
                <path d="M0.404,-0.086C0.424,-0.069 0.446,-0.052 0.468,-0.037C0.494,-0.018 0.509,0.005 0.498,0.039C0.495,0.049 0.494,0.06 0.491,0.07C0.488,0.068 0.485,0.065 0.483,0.062C0.48,0.046 0.469,0.036 0.449,0.025C0.435,0.017 0.408,-0.001 0.406,0.016C0.438,0.045 0.459,0.078 0.478,0.112C0.478,0.113 0.479,0.114 0.479,0.115C0.481,0.118 0.483,0.121 0.485,0.124C0.486,0.126 0.487,0.128 0.488,0.13C0.489,0.131 0.489,0.132 0.49,0.132C0.496,0.152 0.51,0.168 0.532,0.181C0.579,0.209 0.63,0.209 0.681,0.203C0.669,0.2 0.656,0.199 0.644,0.196C0.602,0.188 0.573,0.165 0.563,0.123C0.557,0.098 0.553,0.073 0.552,0.048C0.549,-0.029 0.552,-0.025 0.521,-0.071C0.513,-0.089 0.489,-0.115 0.484,-0.126C0.478,-0.14 0.462,-0.199 0.462,-0.199C0.453,-0.166 0.46,-0.139 0.473,-0.115C0.467,-0.124 0.462,-0.131 0.46,-0.136C0.45,-0.15 0.42,-0.212 0.42,-0.212C0.415,-0.157 0.445,-0.123 0.479,-0.092C0.464,-0.104 0.441,-0.123 0.428,-0.146L0.388,-0.208C0.383,-0.137 0.435,-0.101 0.48,-0.061C0.434,-0.085 0.396,-0.118 0.373,-0.17C0.372,-0.165 0.372,-0.16 0.372,-0.155C0.372,-0.126 0.384,-0.104 0.404,-0.086Z" style="fill:url(#_Linear12);fill-rule:nonzero;"/>
            </g>
            <g transform="matrix(3.22432,0.0208001,-0.0208001,3.22432,-0.230596,-0.660649)">
                <path d="M0.345,-0.17C0.369,-0.118 0.406,-0.085 0.452,-0.061C0.407,-0.101 0.355,-0.137 0.36,-0.208L0.4,-0.146C0.413,-0.123 0.436,-0.104 0.451,-0.092C0.417,-0.123 0.388,-0.157 0.392,-0.212C0.392,-0.212 0.422,-0.15 0.432,-0.136C0.434,-0.131 0.44,-0.124 0.446,-0.115C0.432,-0.139 0.425,-0.166 0.435,-0.199C0.435,-0.199 0.451,-0.14 0.456,-0.126C0.461,-0.115 0.485,-0.089 0.493,-0.071C0.524,-0.025 0.521,-0.029 0.525,0.048C0.526,0.073 0.529,0.098 0.535,0.123C0.545,0.165 0.575,0.188 0.616,0.196C0.629,0.199 0.641,0.2 0.653,0.203C0.602,0.209 0.551,0.209 0.505,0.181C0.483,0.168 0.469,0.152 0.462,0.132C0.461,0.132 0.461,0.131 0.46,0.13C0.459,0.128 0.458,0.126 0.457,0.124C0.455,0.121 0.454,0.118 0.452,0.115C0.451,0.114 0.45,0.113 0.45,0.112C0.431,0.078 0.411,0.045 0.378,0.016C0.381,-0.001 0.407,0.016 0.421,0.025C0.442,0.036 0.452,0.046 0.455,0.062C0.457,0.065 0.46,0.068 0.463,0.07L0.464,0.07C0.466,0.06 0.467,0.049 0.471,0.039C0.481,0.005 0.466,-0.018 0.44,-0.037C0.418,-0.052 0.397,-0.069 0.376,-0.086C0.356,-0.104 0.345,-0.126 0.344,-0.155C0.344,-0.16 0.345,-0.165 0.345,-0.17Z" style="fill:url(#_Linear13);fill-rule:nonzero;"/>
            </g>
            <g transform="matrix(0.930814,-1.81794e-23,1.81794e-23,0.930814,-0.0777622,0.00864149)">
                <path d="M0.194,0.005L0.194,-0.005L0.195,-0.005C0.196,-0.066 0.214,-0.135 0.263,-0.209C0.263,-0.209 0.707,-0.26 0.839,-0.326C0.937,-0.223 1.171,-0.074 1.34,-0.033C1.34,-0.033 1.379,-0.03 1.396,-0.033C1.413,-0.035 1.413,-0.016 1.413,-0.016L0.731,-0.016C0.727,-0.031 0.713,-0.039 0.697,-0.039C0.678,-0.039 0.656,-0.019 0.656,0.001C0.656,0.032 0.681,0.039 0.701,0.039C0.717,0.039 0.728,0.036 0.731,0.02L1.413,0.02C1.413,0.02 1.413,0.035 1.396,0.033C1.379,0.03 1.34,0.033 1.34,0.033C1.171,0.074 0.937,0.223 0.839,0.326C0.707,0.26 0.263,0.209 0.263,0.209C0.214,0.135 0.196,0.066 0.195,0.005L0.194,0.005Z" style="fill:url(#_Linear14);fill-rule:nonzero;"/>
            </g>
        </g>
    </g>
    <defs>
        <linearGradient id="_Linear1" x1="0" y1="0" x2="1" y2="0" gradientUnits="userSpaceOnUse" gradientTransform="matrix(1,0,0,1,0,-2.87928e-06)"><stop offset="0" style="stop-color:rgb(73,104,118);stop-opacity:1"/><stop offset="0.54" style="stop-color:rgb(9,53,66);stop-opacity:1"/><stop offset="1" style="stop-color:rgb(0,2,20);stop-opacity:1"/></linearGradient>
        <linearGradient id="_Linear2" x1="0" y1="0" x2="1" y2="0" gradientUnits="userSpaceOnUse" gradientTransform="matrix(1,0,0,1,0,-0.000441611)"><stop offset="0" style="stop-color:rgb(73,104,118);stop-opacity:1"/><stop offset="0.54" style="stop-color:rgb(9,53,66);stop-opacity:1"/><stop offset="1" style="stop-color:rgb(0,2,20);stop-opacity:1"/></linearGradient>
        <linearGradient id="_Linear3" x1="0" y1="0" x2="1" y2="0" gradientUnits="userSpaceOnUse" gradientTransform="matrix(1,0,0,1,-1.77636e-15,6.753e-06)"><stop offset="0" style="stop-color:rgb(73,104,118);stop-opacity:1"/><stop offset="0.54" style="stop-color:rgb(9,53,66);stop-opacity:1"/><stop offset="1" style="stop-color:rgb(0,2,20);stop-opacity:1"/></linearGradient>
        <linearGradient id="_Linear4" x1="0" y1="0" x2="1" y2="0" gradientUnits="userSpaceOnUse" gradientTransform="matrix(1,0,0,1,0,-7.2139e-06)"><stop offset="0" style="stop-color:rgb(73,104,118);stop-opacity:1"/><stop offset="0.54" style="stop-color:rgb(9,53,66);stop-opacity:1"/><stop offset="1" style="stop-color:rgb(0,2,20);stop-opacity:1"/></linearGradient>
        <linearGradient id="_Linear5" x1="0" y1="0" x2="1" y2="0" gradientUnits="userSpaceOnUse" gradientTransform="matrix(1,0,0,1,-8.88178e-16,-4.35516e-06)"><stop offset="0" style="stop-color:rgb(73,104,118);stop-opacity:1"/><stop offset="0.54" style="stop-color:rgb(9,53,66);stop-opacity:1"/><stop offset="1" style="stop-color:rgb(0,2,20);stop-opacity:1"/></linearGradient>
        <linearGradient id="_Linear6" x1="0" y1="0" x2="1" y2="0" gradientUnits="userSpaceOnUse" gradientTransform="matrix(1,0,0,1,0,-3.81527e-06)"><stop offset="0" style="stop-color:rgb(73,104,118);stop-opacity:1"/><stop offset="0.54" style="stop-color:rgb(9,53,66);stop-opacity:1"/><stop offset="1" style="stop-color:rgb(0,2,20);stop-opacity:1"/></linearGradient>
        <linearGradient id="_Linear7" x1="0" y1="0" x2="1" y2="0" gradientUnits="userSpaceOnUse" gradientTransform="matrix(1,0,0,1,8.88178e-16,-4.95642e-06)"><stop offset="0" style="stop-color:rgb(73,104,118);stop-opacity:1"/><stop offset="0.54" style="stop-color:rgb(9,53,66);stop-opacity:1"/><stop offset="1" style="stop-color:rgb(0,2,20);stop-opacity:1"/></linearGradient>
        <linearGradient id="_Linear8" x1="0" y1="0" x2="1" y2="0" gradientUnits="userSpaceOnUse" gradientTransform="matrix(1,0,0,1,0,0)"><stop offset="0" style="stop-color:rgb(73,104,118);stop-opacity:1"/><stop offset="0.54" style="stop-color:rgb(9,53,66);stop-opacity:1"/><stop offset="1" style="stop-color:rgb(0,2,20);stop-opacity:1"/></linearGradient>
        <linearGradient id="_Linear9" x1="0" y1="0" x2="1" y2="0" gradientUnits="userSpaceOnUse" gradientTransform="matrix(1,0,0,1,-8.88178e-16,1.66165e-05)"><stop offset="0" style="stop-color:rgb(73,104,118);stop-opacity:1"/><stop offset="0.54" style="stop-color:rgb(9,53,66);stop-opacity:1"/><stop offset="1" style="stop-color:rgb(0,2,20);stop-opacity:1"/></linearGradient>
        <linearGradient id="_Linear10" x1="0" y1="0" x2="1" y2="0" gradientUnits="userSpaceOnUse" gradientTransform="matrix(1,0,0,1,0,1.62999e-05)"><stop offset="0" style="stop-color:rgb(73,104,118);stop-opacity:1"/><stop offset="0.54" style="stop-color:rgb(9,53,66);stop-opacity:1"/><stop offset="1" style="stop-color:rgb(0,2,20);stop-opacity:1"/></linearGradient>
        <linearGradient id="_Linear11" x1="0" y1="0" x2="1" y2="0" gradientUnits="userSpaceOnUse" gradientTransform="matrix(1,0,0,1,0,-1.54569e-05)"><stop offset="0" style="stop-color:rgb(73,104,118);stop-opacity:1"/><stop offset="0.54" style="stop-color:rgb(9,53,66);stop-opacity:1"/><stop offset="1" style="stop-color:rgb(0,2,20);stop-opacity:1"/></linearGradient>
        <linearGradient id="_Linear12" x1="0" y1="0" x2="1" y2="0" gradientUnits="userSpaceOnUse" gradientTransform="matrix(1,0,0,1,2.22045e-16,-0.00278305)"><stop offset="0" style="stop-color:rgb(251,201,37);stop-opacity:1"/><stop offset="0.01" style="stop-color:rgb(251,201,37);stop-opacity:1"/><stop offset="0.25" style="stop-color:rgb(255,251,204);stop-opacity:1"/><stop offset="0.6" style="stop-color:rgb(194,146,46);stop-opacity:1"/><stop offset="0.87" style="stop-color:rgb(238,215,137);stop-opacity:1"/><stop offset="1" style="stop-color:rgb(255,251,204);stop-opacity:1"/></linearGradient>
        <linearGradient id="_Linear13" x1="0" y1="0" x2="1" y2="0" gradientUnits="userSpaceOnUse" gradientTransform="matrix(1,-8.67362e-19,8.67362e-19,1,0,-0.00278786)"><stop offset="0" style="stop-color:rgb(251,201,37);stop-opacity:1"/><stop offset="0.01" style="stop-color:rgb(251,201,37);stop-opacity:1"/><stop offset="0.25" style="stop-color:rgb(255,251,204);stop-opacity:1"/><stop offset="0.6" style="stop-color:rgb(194,146,46);stop-opacity:1"/><stop offset="0.87" style="stop-color:rgb(238,215,137);stop-opacity:1"/><stop offset="1" style="stop-color:rgb(255,251,204);stop-opacity:1"/></linearGradient>
        <linearGradient id="_Linear14" x1="0" y1="0" x2="1" y2="0" gradientUnits="userSpaceOnUse" gradientTransform="matrix(1,0,0,1,0,4.81778e-06)"><stop offset="0" style="stop-color:rgb(179,197,208);stop-opacity:1"/><stop offset="0.54" style="stop-color:rgb(120,149,163);stop-opacity:1"/><stop offset="1" style="stop-color:rgb(67,102,118);stop-opacity:1"/></linearGradient>
    </defs>
</svg>
