<?xml version="1.0" encoding="UTF-8" standalone="no"?>
<!DOCTYPE svg PUBLIC "-//W3C//DTD SVG 1.1//EN" "http://www.w3.org/Graphics/SVG/1.1/DTD/svg11.dtd">
<svg width="100%" height="100%" viewBox="0 0 1099 1029" version="1.1" xmlns="http://www.w3.org/2000/svg" xmlns:xlink="http://www.w3.org/1999/xlink" xml:space="preserve" xmlns:serif="http://www.serif.com/" style="fill-rule:evenodd;clip-rule:evenodd;stroke-miterlimit:10;">
    <g transform="matrix(4.16667,0,0,4.16667,52.7292,732.011)">
        <path d="M0,41.198C3.872,41.942 6.501,42.314 7.886,42.314C12.963,42.314 17.477,41.262 21.426,39.16C26.298,36.57 28.734,32.967 28.734,28.351C28.734,22.838 25.426,18.017 18.81,13.887C13.526,10.58 7.629,8.413 1.115,7.386L0,41.198ZM-3.731,-0.191L-3.5,-1.922C-3.09,-4.768 -2,-6.192 -0.23,-6.192C1.025,-6.192 1.68,-5.332 1.731,-3.615C1.757,-2.742 1.68,-1.358 1.5,0.54C9.116,1.566 15.95,4.605 22.003,9.656C28.746,15.272 32.119,21.683 32.119,28.888C32.119,31.222 31.567,33.582 30.465,35.967C26.978,43.429 19.592,47.16 8.309,47.16C5.154,47.16 2.705,46.699 0.962,45.775C0.936,46.006 0.743,46.429 0.385,47.045C0.025,47.275 -0.462,47.39 -1.077,47.39C-2.898,47.39 -4.104,45.84 -4.692,42.736C-4.821,41.942 -4.962,39.826 -5.116,36.39C-5.244,33.595 -5.27,31.211 -5.192,29.235L-4.424,6.233C-6.116,6.028 -7.783,5.541 -9.424,4.771C-11.578,3.746 -12.655,2.579 -12.655,1.271C-12.655,0.117 -11.706,-0.46 -9.809,-0.46C-8.219,-0.46 -6.192,-0.369 -3.731,-0.191" style="fill:rgb(88,89,91);fill-rule:nonzero;"/>
    </g>
    <g transform="matrix(4.16667,0,0,4.16667,246.821,923.17)">
        <path d="M0,1.475C0,-1.064 -0.129,-3.398 -0.385,-5.527C-3.411,-2.449 -5.911,0.923 -7.886,4.59C-10.193,8.872 -11.348,12.86 -11.348,16.553C-11.348,18.117 -10.988,19.579 -10.271,20.938C-9.424,22.604 -8.296,23.438 -6.886,23.438C-2.295,23.438 0,16.117 0,1.475M-4.731,-23.682C-3.911,-23.553 -3.5,-23.31 -3.5,-22.951L-5.809,-18.912C-10.143,-11.296 -12.271,-5.513 -12.193,-1.564C-9.296,-3.179 -6.616,-6.142 -4.154,-10.45C-2.052,-14.142 -0.564,-17.899 0.308,-21.72C0.487,-22.541 0.936,-22.951 1.654,-22.951C2.5,-22.951 3.128,-22.695 3.539,-22.181C3.718,-21.875 3.809,-20.746 3.809,-18.796C3.809,-17.49 3.77,-15.809 3.692,-13.757C4.487,-14.476 5.205,-14.847 5.847,-14.874C6.667,-14.771 7.052,-14.398 7.001,-13.757C6.847,-13.476 5.809,-12.283 3.885,-10.181C4.039,-5.974 4.116,-2.462 4.116,0.359C4.116,17.028 0.436,25.362 -6.924,25.362C-9.026,25.362 -10.771,24.323 -12.155,22.246C-13.386,20.373 -14.001,18.334 -14.001,16.129C-14.001,11.924 -12.63,7.488 -9.886,2.821C-7.553,-1.154 -4.591,-4.769 -1,-8.027L-1,-10.835C-2.08,-9.218 -3.752,-6.834 -6.014,-3.68C-8.431,-0.449 -10.59,1.166 -12.493,1.166C-14.678,1.166 -15.771,-0.846 -15.771,-4.873C-15.771,-8.359 -14.027,-13.451 -10.539,-20.143C-11.027,-20.091 -11.482,-20.213 -11.905,-20.509C-12.328,-20.803 -12.54,-21.195 -12.54,-21.681C-12.54,-22.682 -11.412,-23.336 -9.154,-23.644C-7.437,-23.875 -5.962,-23.887 -4.731,-23.682" style="fill:rgb(88,89,91);fill-rule:nonzero;"/>
    </g>
    <g transform="matrix(4.16667,0,0,4.16667,278.392,891.488)">
        <path d="M0,-20.348C0,-22.169 0.577,-23.079 1.731,-23.079C2.706,-23.079 3.578,-22.785 4.347,-22.195C5.167,-21.527 5.578,-20.72 5.578,-19.771C5.578,-18.719 5.487,-17.156 5.309,-15.078C5.129,-13.001 5.039,-11.437 5.039,-10.386C5.039,-3.025 5.731,2.77 7.116,7.001C8.425,5.54 9.526,2.526 10.425,-2.038C11.168,-5.783 11.54,-8.795 11.54,-11.077C11.54,-14.027 10.911,-17.566 9.655,-21.695C9.296,-22.72 8.949,-23.734 8.616,-24.734C8.078,-26.451 7.809,-27.797 7.809,-28.772C7.809,-30.259 8.386,-31.003 9.54,-31.003C11.565,-31.003 13.117,-28.297 14.194,-22.886C14.912,-19.296 15.271,-16.052 15.271,-13.156C15.271,-9.257 14.553,-4.679 13.117,0.577C11.296,7.296 9.117,10.655 6.578,10.655C4.116,10.655 2.295,6.193 1.116,-2.731C0.372,-8.398 0,-14.271 0,-20.348" style="fill:rgb(88,89,91);fill-rule:nonzero;"/>
    </g>
    <g transform="matrix(4.16667,0,0,4.16667,391.706,918.407)">
        <path d="M0,-25.999C0,-26.257 -0.103,-26.386 -0.308,-26.386C-1.256,-26.386 -2.423,-25.098 -3.808,-22.522C-4.885,-20.462 -5.603,-18.788 -5.962,-17.5C-4.757,-18.505 -3.538,-19.805 -2.308,-21.401C-0.769,-23.411 0,-24.942 0,-25.999M9.348,-9.845C9.348,-7.742 7.629,-4.985 4.193,-1.575C0.885,1.733 -1.987,3.387 -4.423,3.387C-7.192,3.387 -9.257,1.784 -10.616,-1.421C-11.616,-3.806 -12.116,-6.435 -12.116,-9.307C-12.116,-13.333 -11.181,-17.462 -9.309,-21.692C-7.026,-26.821 -4.218,-29.386 -0.884,-29.386C0.218,-29.386 1.167,-29.052 1.962,-28.386C2.757,-27.719 3.154,-26.86 3.154,-25.809C3.154,-23.886 1.924,-21.654 -0.538,-19.116C-2.872,-16.679 -5.038,-15.204 -7.039,-14.692C-7.68,-12.204 -8,-9.538 -8,-6.69C-8,-4.973 -7.859,-3.537 -7.577,-2.383C-6.987,-0.203 -5.68,0.887 -3.653,0.887C-2.064,0.887 -0.41,-0.177 1.309,-2.306C2.129,-3.28 3.437,-5.28 5.231,-8.307C6.437,-10.281 7.373,-11.269 8.04,-11.269C8.348,-11.269 8.642,-11.108 8.925,-10.788C9.206,-10.467 9.348,-10.153 9.348,-9.845" style="fill:rgb(88,89,91);fill-rule:nonzero;"/>
    </g>
    <g transform="matrix(4.16667,0,0,4.16667,422.96,889.727)">
        <path d="M0,-12.233C0.23,-14.002 0.448,-16.233 0.654,-18.925L0.615,-20.542C-0.257,-19.848 -0.692,-18.296 -0.692,-15.886C-0.692,-14.784 -0.462,-13.565 0,-12.233M5.924,-8.655C5.025,-8.09 4.025,-7.796 2.924,-7.77C2.82,-6.95 2.744,-3.398 2.692,2.884C2.641,8.296 2.462,11.245 2.154,11.732C2.025,11.937 1.833,12.039 1.577,12.039C0.115,12.039 -0.73,10.655 -0.962,7.885C-1.167,5.322 -1.052,1.693 -0.615,-3.001C-0.282,-6.436 -0.142,-8.219 -0.192,-8.347C-2.141,-10.296 -3.115,-13.219 -3.115,-17.118C-3.115,-18.399 -2.82,-19.823 -2.23,-21.387C-1.487,-23.311 -0.59,-24.272 0.462,-24.272C2.59,-24.272 3.654,-22.247 3.654,-18.194C3.654,-17.246 3.437,-14.502 3,-9.963C3.257,-10.194 4.052,-11.296 5.386,-13.271C6.437,-14.835 7.257,-15.618 7.847,-15.618C10.181,-15.618 11.348,-15.003 11.348,-13.771C11.348,-13.002 11.206,-11.809 10.924,-10.194C9.976,-5.013 9.963,-0.206 10.886,4.231C11.321,6.308 11.963,7.347 12.81,7.347C13.578,7.347 14.411,5.488 15.31,1.769L16.271,-2.27C16.527,-3.141 16.873,-3.655 17.31,-3.808C17.515,-3.885 17.72,-3.924 17.925,-3.924C19.002,-3.924 19.541,-3.141 19.541,-1.577C19.541,0.372 18.822,2.679 17.387,5.347C15.796,8.322 14.155,9.808 12.463,9.808C7.744,9.808 5.386,5.295 5.386,-3.731C5.386,-5.141 5.564,-6.783 5.924,-8.655" style="fill:rgb(88,89,91);fill-rule:nonzero;"/>
    </g>
    <g transform="matrix(4.16667,0,0,4.16667,530.504,831.063)">
        <path d="M0,11.771C-3.129,15.335 -4.692,18.285 -4.692,20.618C-4.692,20.926 -4.668,21.221 -4.616,21.502C-4.437,22.555 -3.911,23.081 -3.039,23.081C-1.834,23.081 -0.757,22.452 0.192,21.195C1.013,20.118 1.423,18.836 1.423,17.348C1.423,15.758 0.948,13.9 0,11.771M-1.154,8.04L-3.5,0.155C-3.757,1.257 -4.154,2.899 -4.692,5.079C-5.437,8.104 -6.244,9.617 -7.116,9.617C-8.014,9.617 -8.462,8.963 -8.462,7.655C-8.462,6.424 -7.949,4.45 -6.924,1.731C-6.077,-0.474 -5.231,-2.384 -4.385,-4C-4.847,-6.205 -5.077,-7.705 -5.077,-8.5C-5.077,-9.5 -4.437,-10.564 -3.154,-11.693C-1.872,-12.822 -0.718,-13.386 0.308,-13.386C1.385,-13.386 1.923,-12.923 1.923,-12.001C1.923,-11.718 1.635,-10.917 1.058,-9.597C0.48,-8.275 0.192,-7.218 0.192,-6.423C0.192,-5.808 1.063,-2.333 2.808,4C3.09,3.514 4.347,2.655 6.578,1.424C8.809,0.193 10.219,-0.422 10.809,-0.422C11.501,-0.422 11.848,0.09 11.848,1.116C11.848,1.322 11.693,1.54 11.386,1.77C10.488,2.36 9.167,3.295 7.424,4.579C5.91,5.784 4.731,6.924 3.885,8.001C4.885,12.848 5.385,15.643 5.385,16.387C5.385,18.336 4.487,20.286 2.692,22.233C0.897,24.182 -0.962,25.157 -2.885,25.157C-4.347,25.157 -5.514,24.581 -6.385,23.426C-7.181,22.349 -7.578,21.067 -7.578,19.58C-7.578,16.785 -5.437,12.938 -1.154,8.04" style="fill:rgb(88,89,91);fill-rule:nonzero;"/>
    </g>
    <g transform="matrix(4.16667,0,0,4.16667,700.235,868.729)">
        <path d="M0,-14.386C0.23,-13.924 0.346,-13.463 0.346,-13.001C0.346,-12.489 0.179,-12.052 -0.154,-11.694C-1.104,2.949 -1.577,14.053 -1.577,21.618L-2.001,21.618C-4.309,21.618 -5.463,19.784 -5.463,16.117C-5.463,15.656 -5.437,14.969 -5.386,14.059C-5.335,13.149 -5.309,12.463 -5.309,12.002C-5.309,-0.487 -5.026,-8.334 -4.463,-11.539L-11.925,-11.539L-12.271,13.425C-12.271,13.656 -12.373,13.758 -12.578,13.732C-15.604,13.322 -17.117,11.347 -17.117,7.808C-17.117,7.193 -17.04,3.501 -16.887,-3.27C-16.964,-5.218 -16.912,-8.078 -16.732,-11.848L-20.926,-11.77C-23.592,-11.848 -24.926,-12.41 -24.926,-13.463C-24.926,-14.514 -22.144,-15.039 -16.579,-15.039C-16.604,-16.091 -16.527,-17.591 -16.348,-19.54C-16.144,-21.592 -16.04,-23.092 -16.04,-24.041C-16.04,-24.195 -16.348,-24.367 -16.964,-24.561C-17.579,-24.752 -17.887,-25.053 -17.887,-25.464C-17.887,-26.207 -17.284,-26.887 -16.079,-27.502C-15.027,-28.067 -14.092,-28.349 -13.271,-28.349C-11.912,-28.349 -11.297,-27.041 -11.425,-24.426C-11.477,-22.707 -11.617,-19.592 -11.848,-15.078C-11.104,-15.078 -9.835,-15.027 -8.04,-14.924C-6.348,-14.822 -5.078,-14.809 -4.231,-14.886L-3.809,-26.617C-3.373,-32.875 -2.604,-36.004 -1.501,-36.004C0.396,-36.004 1.346,-35.363 1.346,-34.08C1.346,-32.003 1.102,-28.721 0.615,-24.233C0.153,-19.95 -0.052,-16.668 0,-14.386" style="fill:rgb(35,31,32);fill-rule:nonzero;"/>
    </g>
    <g transform="matrix(4.16667,0,0,4.16667,721.711,826.363)">
        <path d="M0,24.9C2.923,24.9 5.975,21.605 9.154,15.015C9.386,14.552 11.437,10.078 15.309,1.589C11.078,3.718 7.397,6.45 4.27,9.783C0.423,13.886 -1.5,17.938 -1.5,21.939C-1.5,23.914 -1,24.9 0,24.9M19.579,22.439C19.783,21.925 20.464,20.08 21.617,16.9C22.694,13.899 23.707,12.399 24.656,12.399C25.554,12.399 26.003,12.937 26.003,14.015C26.003,15.375 25.311,17.502 23.926,20.4C22.437,23.504 21.143,25.13 20.04,25.285C17.578,25.13 15.81,23.785 14.732,21.246C13.886,19.271 13.514,16.913 13.616,14.169C12.359,17.015 10.552,19.823 8.193,22.592C5.244,26.054 2.628,27.785 0.346,27.785C-1.476,27.785 -2.885,26.682 -3.886,24.477C-4.681,22.734 -5.078,20.861 -5.078,18.861C-5.078,15.041 -3.052,10.847 1,6.283C4.82,1.923 8.68,-0.871 12.578,-2.102C14.296,-2.641 15.565,-2.885 16.386,-2.833C16.719,-2.68 17.283,-2.449 18.078,-2.141C18.232,-2.166 18.515,-2.192 18.925,-2.218C20.412,-2.192 21.13,-1.704 21.079,-0.756C21.002,1.013 20.643,3.732 20.002,7.398C19.258,11.451 18.887,14.591 18.887,16.822C18.887,18.976 19.117,20.849 19.579,22.439" style="fill:rgb(35,31,32);fill-rule:nonzero;"/>
    </g>
    <g transform="matrix(4.16667,0,0,4.16667,840.31,877.378)">
        <path d="M0,-4.152C0.025,-3.767 0.076,-2.127 0.153,0.771C0.84,-2.972 1.374,-5.666 1.757,-7.306C2.494,-10.563 3.284,-13.192 4.124,-15.192C4.582,-16.32 5.04,-17.064 5.498,-17.423C6.567,-18.295 7.968,-18.41 9.699,-17.769C10.183,-17.59 10.425,-17.129 10.425,-16.384C10.425,-15.846 10.398,-14.64 10.348,-12.769C10.271,-11.281 10.245,-10.063 10.271,-9.115C10.373,-5.909 10.425,-2.972 10.425,-0.306C10.425,8.157 9.898,13.824 8.848,16.696C8.206,18.44 7.629,19.311 7.116,19.311C6.68,19.311 6.449,18.836 6.424,17.888C5.731,0.143 5.411,-9.691 5.463,-11.615C4.898,-10.281 4.078,-6.55 3.001,-0.422C2.052,4.836 1.577,8.491 1.577,10.541C1.475,11.157 1.192,11.529 0.731,11.657C-0.269,11.811 -1.103,11.387 -1.77,10.387C-2.667,9.055 -3.282,6.695 -3.615,3.31C-3.871,0.668 -4,-4.435 -4,-12C-4,-19.667 -2.321,-23.463 1.039,-23.385C1.603,-23.359 1.885,-23.026 1.885,-22.385C1.885,-22.001 1.718,-21.308 1.385,-20.308C1.077,-19.436 0.897,-18.834 0.847,-18.5C0.282,-13.961 0,-9.178 0,-4.152" style="fill:rgb(35,31,32);fill-rule:nonzero;"/>
    </g>
    <g transform="matrix(4.16667,0,0,4.16667,903.62,747.403)">
        <path d="M0,40.043C0,40.812 0.153,41.543 0.462,42.235C0.871,43.134 1.436,43.543 2.154,43.466C3.59,43.313 5.564,40.991 8.078,36.504C9.052,34.812 9.924,32.927 10.693,30.85C12.334,26.464 13.155,22.374 13.155,18.579L13.155,18.502C4.385,23.862 0,31.042 0,40.043M13.463,15.54C13.463,12.411 13.706,8.72 14.193,4.462C14.834,-1.205 15.668,-4.347 16.694,-4.962C17.181,-5.116 17.643,-5.192 18.079,-5.192C19.771,-5.192 20.565,-4.501 20.464,-3.116C19.412,12.169 18.887,21.425 18.887,24.657C18.887,27.837 19.027,31.145 19.31,34.581C19.515,36.966 19.899,39.042 20.464,40.812C20.592,41.171 20.758,41.325 20.964,41.273C22.194,40.48 23.182,38.235 23.926,34.542C24.592,31.132 25.259,29.427 25.926,29.427C27.208,29.427 27.849,30.439 27.849,32.465C27.849,34.491 27.195,36.786 25.888,39.351C24.374,42.3 22.707,43.774 20.887,43.774C18.86,43.774 17.181,42.39 15.848,39.62C14.668,37.157 13.898,34.979 13.54,33.081C10.026,41.185 6.205,45.235 2.077,45.235C0,45.235 -1.564,44.095 -2.616,41.812C-3.385,40.12 -3.77,38.095 -3.77,35.735C-3.77,32.067 -2.206,27.837 0.923,23.041C4.333,17.81 7.821,15.194 11.386,15.194C12.104,15.194 12.796,15.31 13.463,15.54" style="fill:rgb(35,31,32);fill-rule:nonzero;"/>
    </g>
    <g transform="matrix(4.16667,0,0,4.16667,1048.66,831.063)">
        <path d="M0,11.771C-3.129,15.335 -4.692,18.285 -4.692,20.618C-4.692,20.926 -4.667,21.221 -4.615,21.502C-4.437,22.555 -3.91,23.081 -3.038,23.081C-1.833,23.081 -0.757,22.452 0.192,21.195C1.013,20.118 1.424,18.836 1.424,17.348C1.424,15.758 0.948,13.9 0,11.771M-1.153,8.04L-3.5,0.155C-3.757,1.257 -4.154,2.899 -4.692,5.079C-5.437,8.104 -6.244,9.617 -7.116,9.617C-8.014,9.617 -8.462,8.963 -8.462,7.655C-8.462,6.424 -7.949,4.45 -6.924,1.731C-6.077,-0.474 -5.231,-2.384 -4.385,-4C-4.847,-6.205 -5.077,-7.705 -5.077,-8.5C-5.077,-9.5 -4.437,-10.564 -3.154,-11.693C-1.872,-12.822 -0.718,-13.386 0.308,-13.386C1.385,-13.386 1.924,-12.923 1.924,-12.001C1.924,-11.718 1.635,-10.917 1.058,-9.597C0.481,-8.275 0.192,-7.218 0.192,-6.423C0.192,-5.808 1.064,-2.333 2.809,4C3.09,3.514 4.347,2.655 6.578,1.424C8.809,0.193 10.219,-0.422 10.81,-0.422C11.502,-0.422 11.848,0.09 11.848,1.116C11.848,1.322 11.693,1.54 11.386,1.77C10.488,2.36 9.168,3.295 7.424,4.579C5.911,5.784 4.731,6.924 3.886,8.001C4.886,12.848 5.386,15.643 5.386,16.387C5.386,18.336 4.487,20.286 2.693,22.233C0.897,24.182 -0.961,25.157 -2.885,25.157C-4.347,25.157 -5.514,24.581 -6.385,23.426C-7.18,22.349 -7.577,21.067 -7.577,19.58C-7.577,16.785 -5.437,12.938 -1.153,8.04" style="fill:rgb(35,31,32);fill-rule:nonzero;"/>
    </g>
    <g transform="matrix(4.16667,0,0,4.16667,863.858,424.886)">
        <path d="M0,-2.675C-16.174,25.086 -34.191,34.697 -34.191,34.697C-34.191,34.697 -58.766,53.291 -70.26,35.826C-74.957,24.181 -74.334,13.596 -67.004,3.432C-61.434,-4.293 -51.424,-16.076 -58,-26.281C-46.008,-23.856 -49.137,-1.459 -54.889,11.896C-42.361,4.285 -34.227,-6.535 -30.734,-20.744C-27.658,-33.287 -42.799,-45.266 -34.434,-50.153C-32.463,-44.938 -25.012,-38.237 -23.75,-28.01C-22.686,-19.406 -26.902,-13.196 -29.225,-4.807C-24.039,-11.767 -16.906,-20.744 -17.908,-27.255C-19.152,-40.928 -19.619,-55.966 -14.664,-55.92C-13.564,-48.683 -11.396,-31.732 -11.059,-27.52C-10.303,-18.099 -19.648,-4.622 -20.922,-0.895C-16.934,-6.178 -9.986,-13.34 -7.549,-24.115C-6.465,-28.903 -11.963,-49.432 -6.441,-51.471C-4.393,-45.756 -1.199,-26.914 -1.562,-21.947C-2.201,-13.242 -10.844,-1.903 -12.232,0.466C1.043,-7.255 0.059,-28.164 2.713,-24.074C4.072,-19.631 4.16,-9.82 0,-2.675" style="fill:rgb(35,31,32);fill-rule:nonzero;"/>
    </g>
    <g transform="matrix(4.16667,0,0,4.16667,863.858,424.886)">
        <path d="M0,-2.675C-16.174,25.086 -34.191,34.697 -34.191,34.697C-34.191,34.697 -58.766,53.291 -70.26,35.826C-74.957,24.181 -74.334,13.596 -67.004,3.432C-61.434,-4.293 -51.424,-16.076 -58,-26.281C-46.008,-23.856 -49.137,-1.459 -54.889,11.896C-42.361,4.285 -34.227,-6.535 -30.734,-20.744C-27.658,-33.287 -42.799,-45.266 -34.434,-50.153C-32.463,-44.938 -25.012,-38.237 -23.75,-28.01C-22.686,-19.406 -26.902,-13.196 -29.225,-4.807C-24.039,-11.767 -16.906,-20.744 -17.908,-27.255C-19.152,-40.928 -19.619,-55.966 -14.664,-55.92C-13.564,-48.683 -11.396,-31.732 -11.059,-27.52C-10.303,-18.099 -19.648,-4.622 -20.922,-0.895C-16.934,-6.178 -9.986,-13.34 -7.549,-24.115C-6.465,-28.903 -11.963,-49.432 -6.441,-51.471C-4.393,-45.756 -1.199,-26.914 -1.562,-21.947C-2.201,-13.242 -10.844,-1.903 -12.232,0.466C1.043,-7.255 0.059,-28.164 2.713,-24.074C4.072,-19.631 4.16,-9.82 0,-2.675Z" style="fill:none;stroke:white;stroke-width:1px;"/>
    </g>
    <g transform="matrix(4.16667,0,0,4.16667,521.817,264.465)">
        <path d="M0,74.327C-11.5,91.792 -36.074,73.198 -36.074,73.198C-36.074,73.198 -54.091,63.587 -70.265,35.826C-74.425,28.681 -74.337,18.87 -72.972,14.427C-70.315,10.337 -71.308,31.246 -58.032,38.967C-59.421,36.598 -68.063,25.259 -68.696,16.554C-69.065,11.587 -65.874,-7.255 -63.821,-12.97C-58.302,-10.931 -63.798,9.598 -62.716,14.386C-60.278,25.161 -53.329,32.323 -49.343,37.606C-50.616,33.879 -59.962,20.402 -59.202,10.981C-58.866,6.769 -56.694,-10.182 -55.601,-17.419C-50.64,-17.465 -51.112,-2.427 -52.356,11.246C-53.358,17.757 -46.226,26.734 -41.041,33.694C-43.363,25.306 -47.579,19.095 -46.513,10.491C-45.247,0.264 -37.803,-6.437 -35.832,-11.652C-27.467,-6.765 -42.607,5.214 -39.531,17.757C-36.039,31.966 -27.902,42.786 -15.377,50.397C-21.123,37.042 -24.256,14.645 -12.266,12.22C-18.84,22.425 -8.826,34.208 -3.262,41.933C4.074,52.098 4.697,62.682 0,74.327Z" style="fill:rgb(35,31,32);fill-rule:nonzero;stroke:white;stroke-width:1px;"/>
    </g>
    <g transform="matrix(4.16667,0,0,4.16667,575.642,493.684)">
        <path d="M0,3.826C3.885,-2.617 8.732,-6.721 14.447,-8.582C14.676,-8.771 14.912,-8.951 15.16,-9.126C15.666,-9.482 16.225,-9.749 16.791,-9.988C17.713,-10.569 18.811,-11.006 19.527,-11.618C19.811,-11.862 20.143,-12.028 20.484,-12.108C30.482,-17.658 40.299,-23.49 48.748,-32.999C53.725,-32.186 48.543,-24.503 46.102,-20.346C42.615,-14.404 39.754,-11.4 35.209,-10.441C34.24,-9.928 33.398,-9.084 32.861,-8.179C32.824,-8.119 32.799,-8.056 32.775,-7.99C35.805,-7.23 38.951,-6.865 41.92,-5.922C51.816,-2.787 58.469,-7.098 64.08,-14.793C68.721,-21.156 73.582,-27.395 78.75,-33.332C84.75,-40.239 92.43,-43.55 103.379,-42.282C87.906,-35.496 78.264,-24.578 71.131,-11.156C83.102,-24.225 93.613,-39.541 114.537,-37.83L96.33,-26.262C89.391,-22.528 83.777,-15.789 80.225,-11.464C89.492,-21.342 99.518,-29.876 115.514,-28.357C115.514,-28.357 97.463,-19.692 93.107,-16.957C91.854,-16.17 89.605,-14.678 87.023,-12.936C94.227,-16.811 102.107,-18.801 111.721,-16.022C111.721,-16.022 94.422,-11.403 90.143,-9.725C86.945,-8.471 79.219,-1.344 74.105,1.008C60.41,9.847 61.555,9.131 38.986,9.905C31.687,10.154 24.291,11.089 17.184,12.752C4.779,15.659 -2.039,24.297 -4.533,36.525C-5.27,40.125 -5.719,43.784 -6.619,47.376C-8.27,32.289 -8.18,17.389 0,3.826" style="fill:rgb(88,89,91);"/>
    </g>
    <g transform="matrix(4.16667,0,0,4.16667,575.642,493.684)">
        <path d="M0,3.826C3.885,-2.617 8.732,-6.721 14.447,-8.582C14.676,-8.771 14.912,-8.951 15.16,-9.126C15.666,-9.482 16.225,-9.749 16.791,-9.988C17.713,-10.569 18.811,-11.006 19.527,-11.618C19.811,-11.862 20.143,-12.028 20.484,-12.108C30.482,-17.658 40.299,-23.49 48.748,-32.999C53.725,-32.186 48.543,-24.503 46.102,-20.346C42.615,-14.404 39.754,-11.4 35.209,-10.441C34.24,-9.928 33.398,-9.084 32.861,-8.179C32.824,-8.119 32.799,-8.056 32.775,-7.99C35.805,-7.23 38.951,-6.865 41.92,-5.922C51.816,-2.787 58.469,-7.098 64.08,-14.793C68.721,-21.156 73.582,-27.395 78.75,-33.332C84.75,-40.239 92.43,-43.55 103.379,-42.282C87.906,-35.496 78.264,-24.578 71.131,-11.156C83.102,-24.225 93.613,-39.541 114.537,-37.83L96.33,-26.262C89.391,-22.528 83.777,-15.789 80.225,-11.464C89.492,-21.342 99.518,-29.876 115.514,-28.357C115.514,-28.357 97.463,-19.692 93.107,-16.957C91.854,-16.17 89.605,-14.678 87.023,-12.936C94.227,-16.811 102.107,-18.801 111.721,-16.022C111.721,-16.022 94.422,-11.403 90.143,-9.725C86.945,-8.471 79.219,-1.344 74.105,1.008C60.41,9.847 61.555,9.131 38.986,9.905C31.687,10.154 24.291,11.089 17.184,12.752C4.779,15.659 -2.039,24.297 -4.533,36.525C-5.27,40.125 -5.719,43.784 -6.619,47.376C-8.27,32.289 -8.18,17.389 0,3.826Z" style="fill:none;stroke:white;stroke-width:1px;"/>
    </g>
    <g transform="matrix(4.16667,0,0,4.16667,521.052,493.684)">
        <path d="M0,3.826C-3.887,-2.617 -8.734,-6.721 -14.447,-8.582C-14.676,-8.771 -14.912,-8.951 -15.16,-9.126C-15.666,-9.482 -16.225,-9.749 -16.791,-9.988C-17.713,-10.569 -18.811,-11.006 -19.527,-11.618C-19.812,-11.862 -20.143,-12.028 -20.484,-12.108C-30.482,-17.658 -40.301,-23.49 -48.747,-32.999C-53.724,-32.186 -48.544,-24.503 -46.103,-20.346C-42.615,-14.404 -39.756,-11.4 -35.209,-10.441C-34.242,-9.928 -33.398,-9.084 -32.859,-8.179C-32.824,-8.119 -32.797,-8.056 -32.775,-7.99C-35.805,-7.23 -38.953,-6.865 -41.922,-5.922C-51.817,-2.787 -58.468,-7.098 -64.081,-14.793C-68.722,-21.156 -73.581,-27.395 -78.749,-33.332C-84.749,-40.239 -92.431,-43.55 -103.38,-42.282C-87.907,-35.496 -78.265,-24.578 -71.13,-11.156C-83.103,-24.225 -93.614,-39.541 -114.536,-37.83L-96.331,-26.262C-89.392,-22.528 -83.776,-15.789 -80.224,-11.464C-89.493,-21.342 -99.517,-29.876 -115.513,-28.357C-115.513,-28.357 -97.462,-19.692 -93.108,-16.957C-91.853,-16.17 -89.604,-14.678 -87.024,-12.936C-94.226,-16.811 -102.108,-18.801 -111.722,-16.022C-111.722,-16.022 -94.421,-11.403 -90.142,-9.725C-86.946,-8.471 -79.22,-1.344 -74.106,1.008C-60.411,9.847 -61.554,9.131 -38.986,9.905C-31.689,10.154 -24.291,11.089 -17.184,12.752C-4.781,15.659 2.039,24.297 4.533,36.525C5.27,40.125 5.719,43.784 6.617,47.376C8.27,32.289 8.178,17.389 0,3.826" style="fill:rgb(88,89,91);"/>
    </g>
    <g transform="matrix(4.16667,0,0,4.16667,521.052,493.684)">
        <path d="M0,3.826C-3.887,-2.617 -8.734,-6.721 -14.447,-8.582C-14.676,-8.771 -14.912,-8.951 -15.16,-9.126C-15.666,-9.482 -16.225,-9.749 -16.791,-9.988C-17.713,-10.569 -18.811,-11.006 -19.527,-11.618C-19.812,-11.862 -20.143,-12.028 -20.484,-12.108C-30.482,-17.658 -40.301,-23.49 -48.747,-32.999C-53.724,-32.186 -48.544,-24.503 -46.103,-20.346C-42.615,-14.404 -39.756,-11.4 -35.209,-10.441C-34.242,-9.928 -33.398,-9.084 -32.859,-8.179C-32.824,-8.119 -32.797,-8.056 -32.775,-7.99C-35.805,-7.23 -38.953,-6.865 -41.922,-5.922C-51.817,-2.787 -58.468,-7.098 -64.081,-14.793C-68.722,-21.156 -73.581,-27.395 -78.749,-33.332C-84.749,-40.239 -92.431,-43.55 -103.38,-42.282C-87.907,-35.496 -78.265,-24.578 -71.13,-11.156C-83.103,-24.225 -93.614,-39.541 -114.536,-37.83L-96.331,-26.262C-89.392,-22.528 -83.776,-15.789 -80.224,-11.464C-89.493,-21.342 -99.517,-29.876 -115.513,-28.357C-115.513,-28.357 -97.462,-19.692 -93.108,-16.957C-91.853,-16.17 -89.604,-14.678 -87.024,-12.936C-94.226,-16.811 -102.108,-18.801 -111.722,-16.022C-111.722,-16.022 -94.421,-11.403 -90.142,-9.725C-86.946,-8.471 -79.22,-1.344 -74.106,1.008C-60.411,9.847 -61.554,9.131 -38.986,9.905C-31.689,10.154 -24.291,11.089 -17.184,12.752C-4.781,15.659 2.039,24.297 4.533,36.525C5.27,40.125 5.719,43.784 6.617,47.376C8.27,32.289 8.178,17.389 0,3.826Z" style="fill:none;stroke:white;stroke-width:1px;"/>
    </g>
    <g transform="matrix(4.16667,0,0,4.16667,663.89,223.321)">
        <path d="M0,6.016C-5.58,-5.148 -9.92,-42.767 -9.92,-42.767C-16.125,-46.902 -22.016,-48.404 -27.141,-48.556L-27.141,-48.572C-27.283,-48.572 -27.428,-48.567 -27.57,-48.565C-27.711,-48.567 -27.859,-48.572 -28.002,-48.572L-28.002,-48.556C-33.127,-48.404 -39.014,-46.902 -45.223,-42.767C-45.223,-42.767 -49.561,-5.148 -55.143,6.016C-46.461,14.284 -33.85,34.124 -30.336,48.387C-30.336,48.387 -30.131,51.696 -30.336,53.141C-30.543,54.588 -28.949,54.588 -28.949,54.588L-28.949,-3.173C-30.215,-3.507 -30.908,-4.658 -30.908,-6.032C-30.908,-7.664 -29.145,-9.455 -27.512,-9.455C-24.904,-9.455 -24.234,-7.345 -24.234,-5.713C-24.234,-4.296 -24.557,-3.437 -25.883,-3.144L-25.883,54.588C-25.883,54.588 -24.596,54.588 -24.803,53.141C-25.008,51.696 -24.803,48.387 -24.803,48.387C-21.289,34.124 -8.682,14.284 0,6.016Z" style="fill:rgb(35,31,32);fill-rule:nonzero;stroke:white;stroke-width:1px;"/>
    </g>
</svg>
