<?xml version="1.0" encoding="UTF-8" standalone="no"?>
<!DOCTYPE svg PUBLIC "-//W3C//DTD SVG 1.1//EN" "http://www.w3.org/Graphics/SVG/1.1/DTD/svg11.dtd">
<svg width="100%" height="100%" viewBox="0 0 1101 903" version="1.1" xmlns="http://www.w3.org/2000/svg" xmlns:xlink="http://www.w3.org/1999/xlink" xml:space="preserve" xmlns:serif="http://www.serif.com/" style="fill-rule:evenodd;clip-rule:evenodd;stroke-linejoin:round;stroke-miterlimit:1.41421;">
    <g transform="matrix(6.03055,367.821,367.821,-6.03055,92.2891,553.318)">
        <path d="M0.117,-0.148L0.137,-0.151C0.135,-0.179 0.133,-0.201 0.133,-0.219C0.132,-0.241 0.139,-0.252 0.152,-0.252C0.167,-0.252 0.18,-0.24 0.192,-0.216C0.201,-0.198 0.207,-0.179 0.21,-0.16L0.47,-0.173C0.492,-0.174 0.519,-0.174 0.551,-0.173C0.59,-0.172 0.614,-0.171 0.623,-0.17C0.658,-0.163 0.676,-0.15 0.676,-0.13C0.676,-0.123 0.675,-0.117 0.673,-0.113C0.666,-0.109 0.661,-0.106 0.658,-0.106C0.669,-0.087 0.675,-0.059 0.675,-0.023C0.678,0.105 0.637,0.189 0.553,0.23C0.526,0.243 0.499,0.249 0.473,0.25C0.391,0.251 0.318,0.214 0.253,0.139C0.195,0.071 0.159,-0.006 0.146,-0.092C0.125,-0.089 0.109,-0.088 0.099,-0.088C0.08,-0.088 0.07,-0.096 0.07,-0.11C0.069,-0.13 0.085,-0.143 0.117,-0.148ZM0.606,-0.116L0.224,-0.097C0.237,-0.024 0.262,0.043 0.301,0.102C0.349,0.176 0.404,0.213 0.466,0.212C0.519,0.211 0.559,0.183 0.587,0.127C0.61,0.082 0.621,0.03 0.621,-0.027C0.62,-0.043 0.616,-0.072 0.606,-0.116Z" style="fill:url(#_Linear1);fill-rule:nonzero;"/>
    </g>
    <g transform="matrix(6.0306,367.824,367.824,-6.0306,225.627,551.132)">
        <path d="M0.399,-0.051C0.402,-0.077 0.409,-0.09 0.42,-0.09C0.426,-0.09 0.43,-0.088 0.434,-0.083C0.437,-0.078 0.438,-0.073 0.438,-0.068C0.513,-0.108 0.57,-0.129 0.61,-0.13C0.656,-0.13 0.679,-0.118 0.679,-0.094C0.679,-0.072 0.661,-0.047 0.625,-0.019C0.59,0.007 0.563,0.026 0.545,0.039L0.577,0.038C0.613,-0.003 0.654,-0.037 0.698,-0.064C0.751,-0.096 0.8,-0.113 0.848,-0.114C0.873,-0.114 0.896,-0.107 0.918,-0.094C0.942,-0.078 0.954,-0.059 0.954,-0.035C0.955,0.048 0.862,0.091 0.673,0.095C0.641,0.095 0.601,0.095 0.553,0.094C0.53,0.116 0.517,0.128 0.514,0.13C0.506,0.131 0.502,0.126 0.501,0.117C0.501,0.11 0.505,0.102 0.513,0.092C0.49,0.094 0.471,0.094 0.456,0.095C0.434,0.095 0.421,0.094 0.418,0.092C0.412,0.088 0.409,0.081 0.408,0.071C0.408,0.063 0.413,0.058 0.422,0.056C0.465,0.045 0.508,0.027 0.549,0.003C0.597,-0.026 0.63,-0.057 0.648,-0.09C0.603,-0.09 0.538,-0.065 0.453,-0.014L0.407,0.013C0.403,0.013 0.401,0.008 0.399,-0.001C0.398,-0.008 0.397,-0.015 0.397,-0.023C0.397,-0.031 0.397,-0.041 0.399,-0.051ZM0.903,-0.072C0.888,-0.08 0.871,-0.084 0.853,-0.084C0.812,-0.083 0.767,-0.069 0.719,-0.042C0.677,-0.019 0.64,0.01 0.605,0.045C0.63,0.047 0.656,0.048 0.685,0.048C0.851,0.045 0.933,0.018 0.932,-0.034C0.932,-0.05 0.922,-0.063 0.903,-0.072Z" style="fill:url(#_Linear2);fill-rule:nonzero;"/>
    </g>
    <g transform="matrix(6.0306,367.824,367.824,-6.0306,308.133,549.779)">
        <path d="M0.259,0.005C0.27,0.005 0.285,0.007 0.305,0.013C0.316,0.017 0.328,0.02 0.339,0.024C0.386,0.038 0.427,0.044 0.46,0.044C0.486,0.043 0.52,0.038 0.562,0.029C0.614,0.018 0.648,0.005 0.664,-0.01C0.616,-0.025 0.55,-0.031 0.467,-0.03C0.455,-0.03 0.437,-0.029 0.414,-0.026C0.39,-0.024 0.372,-0.022 0.36,-0.022C0.35,-0.022 0.341,-0.027 0.333,-0.036C0.326,-0.044 0.323,-0.054 0.322,-0.065C0.322,-0.078 0.332,-0.085 0.353,-0.085C0.422,-0.086 0.488,-0.083 0.553,-0.076C0.654,-0.064 0.705,-0.044 0.705,-0.017C0.706,0.012 0.668,0.038 0.592,0.059C0.533,0.077 0.481,0.086 0.437,0.086C0.404,0.087 0.368,0.083 0.327,0.076C0.265,0.065 0.234,0.048 0.234,0.025C0.234,0.012 0.242,0.005 0.259,0.005Z" style="fill:url(#_Linear3);fill-rule:nonzero;"/>
    </g>
    <g transform="matrix(6.0306,367.825,367.825,-6.0306,382.935,548.552)">
        <path d="M0.414,-0.087C0.462,-0.109 0.508,-0.12 0.554,-0.121C0.586,-0.122 0.616,-0.116 0.644,-0.106C0.68,-0.091 0.699,-0.068 0.699,-0.036C0.7,-0.009 0.681,0.024 0.645,0.062C0.607,0.102 0.576,0.122 0.552,0.122C0.548,0.122 0.545,0.121 0.541,0.117C0.537,0.114 0.536,0.111 0.535,0.107C0.535,0.1 0.546,0.089 0.568,0.075C0.602,0.054 0.625,0.039 0.636,0.03C0.659,0.01 0.671,-0.009 0.671,-0.027C0.671,-0.05 0.658,-0.065 0.633,-0.071C0.62,-0.074 0.604,-0.075 0.584,-0.075C0.552,-0.074 0.522,-0.07 0.494,-0.063C0.488,-0.04 0.472,-0.015 0.445,0.012C0.417,0.04 0.392,0.055 0.37,0.055C0.358,0.055 0.348,0.051 0.34,0.042C0.333,0.033 0.329,0.022 0.329,0.01C0.328,-0.028 0.357,-0.06 0.414,-0.087ZM0.406,-0.025C0.377,-0.008 0.363,0.005 0.363,0.016C0.363,0.018 0.364,0.019 0.367,0.019C0.379,0.019 0.396,0.01 0.419,-0.008C0.437,-0.022 0.451,-0.036 0.462,-0.05C0.448,-0.046 0.429,-0.037 0.406,-0.025Z" style="fill:url(#_Linear4);fill-rule:nonzero;"/>
    </g>
    <g transform="matrix(6.03061,367.825,367.825,-6.03061,454.623,547.378)">
        <path d="M0.342,-0.116C0.36,-0.123 0.376,-0.126 0.391,-0.126C0.435,-0.127 0.468,-0.117 0.49,-0.095C0.492,-0.094 0.512,-0.096 0.551,-0.101C0.604,-0.107 0.645,-0.109 0.674,-0.107C0.706,-0.105 0.721,-0.095 0.722,-0.079C0.722,-0.076 0.721,-0.074 0.718,-0.072C0.713,-0.069 0.679,-0.066 0.618,-0.064C0.547,-0.063 0.507,-0.061 0.498,-0.06C0.497,-0.047 0.494,-0.036 0.488,-0.026C0.509,-0.03 0.528,-0.032 0.544,-0.033C0.646,-0.034 0.698,-0.008 0.698,0.045C0.699,0.064 0.682,0.083 0.649,0.102C0.619,0.118 0.593,0.127 0.571,0.127C0.553,0.128 0.544,0.122 0.544,0.109C0.544,0.107 0.544,0.105 0.545,0.102C0.547,0.097 0.553,0.093 0.562,0.09L0.608,0.079C0.65,0.068 0.671,0.058 0.671,0.049C0.67,0.04 0.659,0.033 0.635,0.028C0.585,0.019 0.53,0.02 0.472,0.031C0.453,0.035 0.44,0.037 0.431,0.037C0.417,0.037 0.41,0.024 0.41,-0.003C0.409,-0.009 0.418,-0.019 0.436,-0.031C0.458,-0.046 0.47,-0.056 0.473,-0.058C0.421,-0.053 0.39,-0.05 0.38,-0.05C0.334,-0.049 0.311,-0.06 0.31,-0.085C0.31,-0.097 0.321,-0.107 0.342,-0.116ZM0.405,-0.099C0.378,-0.099 0.36,-0.094 0.353,-0.084L0.371,-0.083C0.401,-0.086 0.426,-0.089 0.446,-0.092C0.431,-0.097 0.417,-0.099 0.405,-0.099Z" style="fill:url(#_Linear5);fill-rule:nonzero;"/>
    </g>
    <g transform="matrix(6.03059,367.824,367.824,-6.03059,535.138,546.058)">
        <path d="M0.297,-0.052C0.31,-0.067 0.322,-0.074 0.333,-0.074C0.342,-0.074 0.359,-0.072 0.384,-0.067C0.402,-0.077 0.424,-0.087 0.449,-0.097C0.479,-0.109 0.502,-0.115 0.515,-0.116C0.53,-0.116 0.538,-0.111 0.538,-0.101C0.538,-0.091 0.521,-0.081 0.487,-0.072C0.462,-0.066 0.444,-0.061 0.431,-0.058L0.521,-0.033C0.576,-0.082 0.619,-0.107 0.651,-0.108C0.668,-0.108 0.682,-0.104 0.694,-0.095C0.708,-0.085 0.714,-0.072 0.715,-0.056C0.715,-0.034 0.704,-0.013 0.683,0.008C0.661,0.029 0.639,0.039 0.617,0.04C0.609,0.04 0.577,0.035 0.522,0.024C0.51,0.034 0.497,0.048 0.484,0.065C0.469,0.085 0.459,0.1 0.453,0.11C0.45,0.114 0.448,0.116 0.445,0.116C0.434,0.116 0.428,0.112 0.428,0.104C0.427,0.098 0.434,0.081 0.448,0.056C0.461,0.03 0.471,0.016 0.476,0.013C0.404,-0.006 0.365,-0.015 0.358,-0.015C0.349,-0.015 0.337,-0.011 0.322,-0.005C0.307,0.002 0.298,0.006 0.295,0.006C0.284,0.006 0.279,0 0.279,-0.012C0.279,-0.024 0.285,-0.037 0.297,-0.052ZM0.673,-0.075C0.67,-0.075 0.666,-0.075 0.663,-0.075C0.637,-0.075 0.603,-0.057 0.564,-0.02C0.588,-0.01 0.609,-0.005 0.627,-0.005C0.644,-0.006 0.658,-0.011 0.67,-0.02C0.684,-0.031 0.691,-0.043 0.691,-0.057C0.691,-0.067 0.685,-0.073 0.673,-0.075Z" style="fill:url(#_Linear6);fill-rule:nonzero;"/>
    </g>
    <g transform="matrix(6.03061,367.825,367.825,-6.03061,650,544.175)">
        <path d="M0.238,0.091L0.371,0.084C0.372,0.074 0.371,0.06 0.37,0.041C0.368,0.02 0.367,0.006 0.367,-0.002C0.316,0.001 0.281,0.003 0.262,0.004C0.232,0.006 0.217,-0.001 0.217,-0.016C0.217,-0.025 0.22,-0.036 0.226,-0.048C0.233,-0.062 0.24,-0.069 0.249,-0.069C0.253,-0.069 0.257,-0.065 0.259,-0.058C0.261,-0.052 0.263,-0.048 0.265,-0.048C0.276,-0.048 0.293,-0.05 0.316,-0.052C0.338,-0.055 0.355,-0.056 0.367,-0.056C0.366,-0.119 0.371,-0.151 0.383,-0.151C0.395,-0.151 0.402,-0.136 0.403,-0.106L0.403,-0.058C0.446,-0.061 0.478,-0.062 0.5,-0.062C0.577,-0.065 0.619,-0.066 0.626,-0.066C0.666,-0.067 0.688,-0.05 0.693,-0.016C0.694,-0.014 0.693,-0.012 0.69,-0.012L0.407,-0.004L0.409,0.081C0.445,0.074 0.534,0.069 0.675,0.067L0.722,0.064C0.763,0.064 0.784,0.076 0.785,0.102L0.785,0.107C0.699,0.109 0.573,0.116 0.408,0.129C0.404,0.133 0.399,0.135 0.393,0.135C0.388,0.135 0.383,0.134 0.377,0.132C0.352,0.132 0.314,0.135 0.266,0.141C0.215,0.147 0.178,0.15 0.155,0.151C0.14,0.151 0.133,0.14 0.132,0.119C0.132,0.106 0.167,0.097 0.238,0.091Z" style="fill:url(#_Linear7);fill-rule:nonzero;"/>
    </g>
    <g transform="matrix(6.03069,367.83,367.83,-6.03069,762.031,542.333)">
        <path d="M0.405,0.028C0.418,-0.017 0.449,-0.061 0.497,-0.105C0.548,-0.152 0.596,-0.176 0.639,-0.176C0.661,-0.177 0.683,-0.172 0.703,-0.164C0.728,-0.153 0.74,-0.137 0.741,-0.116C0.741,-0.091 0.722,-0.061 0.683,-0.027C0.653,0.001 0.621,0.022 0.589,0.036C0.62,0.035 0.647,0.038 0.669,0.048C0.698,0.059 0.714,0.079 0.716,0.107C0.715,0.12 0.696,0.134 0.662,0.152C0.629,0.168 0.605,0.176 0.59,0.177C0.577,0.177 0.571,0.172 0.571,0.162C0.571,0.151 0.588,0.139 0.622,0.126C0.657,0.113 0.678,0.105 0.684,0.102C0.666,0.097 0.645,0.095 0.62,0.096C0.595,0.096 0.559,0.101 0.514,0.11C0.472,0.118 0.441,0.122 0.421,0.124C0.411,0.124 0.405,0.116 0.405,0.099C0.405,0.095 0.405,0.092 0.405,0.09C0.402,0.081 0.399,0.075 0.397,0.071C0.397,0.07 0.397,0.069 0.397,0.068C0.397,0.059 0.399,0.045 0.405,0.028ZM0.674,-0.136C0.629,-0.136 0.583,-0.113 0.538,-0.069C0.501,-0.033 0.47,0.01 0.447,0.058C0.542,0.012 0.593,-0.012 0.598,-0.014C0.672,-0.052 0.709,-0.087 0.708,-0.12C0.708,-0.131 0.697,-0.137 0.674,-0.136Z" style="fill:url(#_Linear8);fill-rule:nonzero;"/>
    </g>
    <g transform="matrix(6.03061,367.825,367.825,-6.03061,851.39,540.872)">
        <path d="M0.433,-0.081C0.519,-0.083 0.577,-0.082 0.607,-0.08C0.645,-0.077 0.672,-0.07 0.687,-0.06C0.699,-0.053 0.704,-0.043 0.702,-0.032C0.701,-0.027 0.697,-0.023 0.69,-0.022C0.666,-0.022 0.625,-0.016 0.566,-0.004C0.497,0.009 0.455,0.019 0.44,0.026C0.461,0.025 0.573,0.027 0.774,0.031C0.785,0.031 0.79,0.034 0.79,0.039C0.79,0.045 0.78,0.051 0.761,0.059C0.728,0.071 0.664,0.078 0.569,0.08C0.538,0.08 0.505,0.08 0.469,0.08C0.458,0.08 0.444,0.08 0.427,0.081C0.406,0.082 0.393,0.083 0.386,0.083C0.378,0.083 0.373,0.08 0.371,0.075C0.363,0.056 0.364,0.04 0.374,0.027C0.378,0.022 0.386,0.017 0.399,0.011C0.421,0.002 0.451,-0.008 0.488,-0.017C0.506,-0.021 0.537,-0.028 0.579,-0.037C0.546,-0.037 0.527,-0.037 0.523,-0.037C0.466,-0.036 0.412,-0.032 0.361,-0.025C0.357,-0.024 0.35,-0.022 0.34,-0.019C0.329,-0.015 0.321,-0.013 0.317,-0.013C0.31,-0.012 0.306,-0.016 0.305,-0.022C0.305,-0.022 0.305,-0.023 0.305,-0.023C0.305,-0.06 0.347,-0.08 0.433,-0.081Z" style="fill:url(#_Linear9);fill-rule:nonzero;"/>
    </g>
    <g transform="matrix(6.03059,367.824,367.824,-6.03059,950.591,539.246)">
        <path d="M0.167,0.06C0.173,0.048 0.209,0.038 0.273,0.03C0.321,0.024 0.363,0.02 0.398,0.02C0.395,0.012 0.394,0.004 0.394,-0.004C0.393,-0.044 0.422,-0.084 0.481,-0.124C0.534,-0.16 0.582,-0.179 0.624,-0.179C0.65,-0.18 0.673,-0.176 0.693,-0.167C0.719,-0.156 0.732,-0.138 0.732,-0.115C0.733,-0.068 0.688,-0.024 0.597,0.017C0.618,0.021 0.643,0.029 0.671,0.042C0.703,0.057 0.719,0.076 0.719,0.098C0.72,0.119 0.703,0.138 0.67,0.156C0.641,0.171 0.615,0.179 0.592,0.179C0.569,0.18 0.558,0.173 0.558,0.158C0.558,0.151 0.577,0.143 0.615,0.135C0.657,0.125 0.682,0.114 0.691,0.1C0.691,0.097 0.69,0.096 0.686,0.094C0.665,0.088 0.642,0.084 0.615,0.082C0.576,0.08 0.538,0.079 0.502,0.079C0.466,0.08 0.361,0.088 0.188,0.102C0.172,0.104 0.164,0.095 0.164,0.076C0.164,0.071 0.165,0.066 0.167,0.06ZM0.698,-0.133C0.69,-0.136 0.682,-0.138 0.673,-0.137C0.571,-0.136 0.491,-0.085 0.432,0.016L0.432,0.016C0.475,0.015 0.522,0.005 0.571,-0.015C0.594,-0.024 0.616,-0.034 0.635,-0.045C0.685,-0.075 0.711,-0.097 0.712,-0.114C0.712,-0.114 0.712,-0.115 0.712,-0.116C0.712,-0.123 0.707,-0.128 0.698,-0.133Z" style="fill:url(#_Linear10);fill-rule:nonzero;"/>
    </g>
    <g transform="matrix(6.03053,367.82,367.82,-6.03053,1053.16,537.568)">
        <path d="M0.32,-0.052C0.333,-0.067 0.345,-0.074 0.356,-0.074C0.365,-0.074 0.382,-0.072 0.407,-0.067C0.425,-0.077 0.447,-0.087 0.472,-0.097C0.502,-0.109 0.525,-0.115 0.539,-0.116C0.553,-0.116 0.561,-0.111 0.561,-0.101C0.561,-0.091 0.544,-0.081 0.51,-0.072C0.485,-0.066 0.467,-0.061 0.455,-0.058L0.544,-0.033C0.599,-0.082 0.642,-0.107 0.674,-0.108C0.691,-0.108 0.705,-0.104 0.718,-0.095C0.731,-0.085 0.738,-0.072 0.738,-0.056C0.738,-0.034 0.727,-0.013 0.706,0.008C0.684,0.029 0.662,0.039 0.64,0.04C0.632,0.04 0.6,0.035 0.545,0.024C0.533,0.034 0.52,0.048 0.507,0.065C0.492,0.085 0.482,0.1 0.476,0.11C0.473,0.114 0.471,0.116 0.468,0.116C0.457,0.116 0.451,0.112 0.451,0.104C0.451,0.097 0.457,0.081 0.471,0.056C0.484,0.03 0.494,0.016 0.499,0.013C0.427,-0.006 0.388,-0.015 0.381,-0.015C0.372,-0.015 0.36,-0.011 0.345,-0.005C0.33,0.002 0.321,0.006 0.318,0.006C0.307,0.006 0.302,0 0.302,-0.012C0.302,-0.024 0.308,-0.037 0.32,-0.052ZM0.696,-0.075C0.693,-0.075 0.69,-0.075 0.686,-0.075C0.66,-0.075 0.627,-0.057 0.587,-0.02C0.611,-0.01 0.632,-0.005 0.65,-0.005C0.667,-0.006 0.681,-0.011 0.694,-0.02C0.708,-0.031 0.714,-0.043 0.714,-0.057C0.714,-0.067 0.708,-0.073 0.696,-0.075Z" style="fill:url(#_Linear11);fill-rule:nonzero;"/>
    </g>
    <g transform="matrix(-8.00182,686.616,686.616,8.00182,716.955,-38.371)">
        <path d="M0.478,0.107C0.517,0.113 0.572,0.071 0.615,0.04C0.564,0.053 0.526,0.078 0.473,0.071C0.411,0.063 0.371,0.017 0.34,0.005C0.37,-0.046 0.442,0.047 0.518,0.029C0.604,0.009 0.671,-0.04 0.718,-0.115C0.636,-0.081 0.5,-0.064 0.486,-0.137C0.548,-0.096 0.62,-0.156 0.667,-0.189C0.729,-0.233 0.794,-0.236 0.864,-0.207C0.969,-0.136 0.855,0.012 0.855,0.012C0.855,0.012 0.795,0.121 0.625,0.217C0.582,0.242 0.522,0.241 0.495,0.232C0.471,0.216 0.598,0.223 0.645,0.143C0.631,0.151 0.561,0.203 0.509,0.206C0.478,0.208 0.364,0.187 0.33,0.174C0.343,0.141 0.467,0.176 0.496,0.17C0.561,0.156 0.605,0.114 0.638,0.09C0.615,0.098 0.533,0.153 0.475,0.148C0.45,0.146 0.347,0.131 0.303,0.124C0.303,0.124 0.303,0.124 0.303,0.124C0.304,0.094 0.395,0.098 0.478,0.107Z" style="fill:url(#_Linear12);fill-rule:nonzero;"/>
    </g>
    <g transform="matrix(-8.00182,686.616,686.616,8.00182,381.598,-42.2789)">
        <path d="M0.312,-0.134C0.356,-0.14 0.459,-0.152 0.485,-0.154C0.542,-0.158 0.623,-0.1 0.646,-0.092C0.614,-0.116 0.571,-0.159 0.506,-0.175C0.477,-0.182 0.352,-0.15 0.34,-0.183C0.375,-0.195 0.489,-0.213 0.519,-0.211C0.572,-0.206 0.64,-0.153 0.654,-0.145C0.608,-0.226 0.482,-0.221 0.507,-0.237C0.534,-0.245 0.593,-0.245 0.636,-0.219C0.804,-0.119 0.861,-0.009 0.861,-0.009C0.861,-0.009 0.972,0.142 0.865,0.21C0.794,0.238 0.73,0.233 0.669,0.188C0.622,0.154 0.551,0.092 0.489,0.131C0.504,0.059 0.64,0.079 0.721,0.115C0.675,0.039 0.61,-0.012 0.524,-0.034C0.449,-0.053 0.375,0.038 0.346,-0.013C0.377,-0.025 0.419,-0.07 0.481,-0.077C0.533,-0.083 0.57,-0.056 0.621,-0.042C0.579,-0.074 0.525,-0.118 0.486,-0.112C0.403,-0.105 0.312,-0.104 0.312,-0.134C0.312,-0.134 0.312,-0.134 0.312,-0.134Z" style="fill:url(#_Linear13);fill-rule:nonzero;"/>
    </g>
    <g transform="matrix(-512.402,-0,-0,-512.402,1054.06,482.812)">
        <path d="M0.299,0.291C0.341,0.242 0.381,0.192 0.418,0.14C0.464,0.077 0.518,0.042 0.598,0.068C0.623,0.075 0.648,0.078 0.673,0.085C0.673,0.085 0.672,0.086 0.672,0.086C0.668,0.094 0.661,0.1 0.653,0.105C0.616,0.112 0.593,0.137 0.564,0.185C0.545,0.219 0.502,0.281 0.543,0.288C0.612,0.211 0.691,0.163 0.773,0.118C0.776,0.117 0.778,0.116 0.781,0.114C0.786,0.109 0.795,0.106 0.803,0.101C0.807,0.099 0.812,0.097 0.816,0.094C0.818,0.092 0.82,0.091 0.822,0.089C0.868,0.074 0.908,0.041 0.939,-0.011C1.006,-0.122 1.007,-0.243 0.993,-0.366C0.986,-0.336 0.982,-0.307 0.976,-0.277C0.956,-0.178 0.9,-0.108 0.8,-0.084C0.742,-0.071 0.682,-0.063 0.622,-0.061C0.439,-0.055 0.448,-0.06 0.337,0.011C0.295,0.031 0.232,0.089 0.206,0.099C0.172,0.112 0.031,0.15 0.031,0.15C0.109,0.173 0.173,0.156 0.232,0.125C0.211,0.139 0.192,0.151 0.182,0.158C0.147,0.18 0,0.25 0,0.25C0.13,0.263 0.212,0.193 0.287,0.113C0.258,0.148 0.212,0.203 0.156,0.233L0.008,0.327C0.178,0.341 0.264,0.217 0.361,0.11C0.303,0.22 0.224,0.308 0.099,0.363C0.111,0.365 0.123,0.366 0.135,0.366C0.205,0.366 0.257,0.339 0.299,0.291Z" style="fill:url(#_Linear14);fill-rule:nonzero;"/>
    </g>
    <g transform="matrix(512.402,0,0,-512.402,36.8522,482.812)">
        <path d="M0.099,0.363C0.224,0.308 0.303,0.22 0.361,0.11C0.264,0.217 0.178,0.341 0.008,0.327L0.156,0.233C0.212,0.203 0.258,0.148 0.287,0.113C0.212,0.193 0.13,0.263 0,0.25C0,0.25 0.147,0.18 0.182,0.158C0.192,0.151 0.211,0.139 0.232,0.125C0.173,0.156 0.109,0.173 0.031,0.15C0.031,0.15 0.172,0.112 0.206,0.099C0.232,0.089 0.295,0.031 0.337,0.011C0.448,-0.06 0.439,-0.055 0.622,-0.061C0.682,-0.063 0.742,-0.071 0.8,-0.084C0.9,-0.108 0.956,-0.178 0.976,-0.277C0.982,-0.307 0.986,-0.336 0.993,-0.366C1.007,-0.243 1.006,-0.122 0.939,-0.011C0.908,0.041 0.868,0.074 0.822,0.089C0.82,0.091 0.818,0.092 0.816,0.094C0.812,0.097 0.807,0.099 0.803,0.101C0.795,0.106 0.786,0.109 0.781,0.114C0.778,0.116 0.776,0.117 0.773,0.118C0.691,0.163 0.612,0.211 0.543,0.288C0.502,0.281 0.545,0.219 0.564,0.185C0.593,0.137 0.616,0.112 0.653,0.105C0.661,0.1 0.668,0.094 0.672,0.086C0.672,0.086 0.673,0.085 0.673,0.085C0.648,0.078 0.623,0.075 0.598,0.068C0.518,0.042 0.464,0.077 0.418,0.14C0.38,0.192 0.341,0.242 0.299,0.291C0.257,0.339 0.205,0.366 0.135,0.366C0.123,0.366 0.111,0.365 0.099,0.363Z" style="fill:url(#_Linear15);fill-rule:nonzero;"/>
    </g>
    <g transform="matrix(-1.54167e-05,352.678,352.678,1.54167e-05,546.116,-68.5362)">
        <path d="M0.194,0C0.194,-0.002 0.194,-0.003 0.194,-0.005L0.195,-0.005C0.196,-0.066 0.214,-0.135 0.263,-0.209C0.263,-0.209 0.707,-0.26 0.839,-0.326C0.937,-0.223 1.171,-0.074 1.34,-0.033C1.34,-0.033 1.379,-0.03 1.396,-0.033C1.413,-0.035 1.413,-0.016 1.413,-0.016L0.731,-0.016C0.727,-0.031 0.713,-0.039 0.697,-0.039C0.678,-0.039 0.656,-0.019 0.656,0.001C0.656,0.032 0.681,0.039 0.701,0.039C0.717,0.039 0.728,0.036 0.731,0.02L1.413,0.02C1.413,0.02 1.413,0.035 1.396,0.033C1.379,0.03 1.34,0.033 1.34,0.033C1.171,0.074 0.937,0.223 0.839,0.326C0.707,0.26 0.263,0.209 0.263,0.209C0.214,0.135 0.196,0.066 0.195,0.005L0.194,0.005C0.194,0.003 0.194,0.002 0.194,0Z" style="fill:url(#_Linear16);fill-rule:nonzero;"/>
    </g>
    <defs>
        <linearGradient id="_Linear1" x1="0" y1="0" x2="1" y2="0" gradientUnits="userSpaceOnUse" gradientTransform="matrix(1,0,0,-1,-2.22045e-16,-0.00106383)"><stop offset="0" style="stop-color:rgb(73,104,118);stop-opacity:1"/><stop offset="0.54" style="stop-color:rgb(9,53,66);stop-opacity:1"/><stop offset="1" style="stop-color:rgb(0,2,20);stop-opacity:1"/></linearGradient>
        <linearGradient id="_Linear2" x1="0" y1="0" x2="1" y2="0" gradientUnits="userSpaceOnUse" gradientTransform="matrix(1,0,0,-1,2.22045e-16,0.00011238)"><stop offset="0" style="stop-color:rgb(73,104,118);stop-opacity:1"/><stop offset="0.54" style="stop-color:rgb(9,53,66);stop-opacity:1"/><stop offset="1" style="stop-color:rgb(0,2,20);stop-opacity:1"/></linearGradient>
        <linearGradient id="_Linear3" x1="0" y1="0" x2="1" y2="0" gradientUnits="userSpaceOnUse" gradientTransform="matrix(1,0,0,-1,0,0.000432808)"><stop offset="0" style="stop-color:rgb(73,104,118);stop-opacity:1"/><stop offset="0.54" style="stop-color:rgb(9,53,66);stop-opacity:1"/><stop offset="1" style="stop-color:rgb(0,2,20);stop-opacity:1"/></linearGradient>
        <linearGradient id="_Linear4" x1="0" y1="0" x2="1" y2="0" gradientUnits="userSpaceOnUse" gradientTransform="matrix(1,0,0,-1,0,0.000432561)"><stop offset="0" style="stop-color:rgb(73,104,118);stop-opacity:1"/><stop offset="0.54" style="stop-color:rgb(9,53,66);stop-opacity:1"/><stop offset="1" style="stop-color:rgb(0,2,20);stop-opacity:1"/></linearGradient>
        <linearGradient id="_Linear5" x1="0" y1="0" x2="1" y2="0" gradientUnits="userSpaceOnUse" gradientTransform="matrix(1,0,0,-1,0,0.000415447)"><stop offset="0" style="stop-color:rgb(73,104,118);stop-opacity:1"/><stop offset="0.54" style="stop-color:rgb(9,53,66);stop-opacity:1"/><stop offset="1" style="stop-color:rgb(0,2,20);stop-opacity:1"/></linearGradient>
        <linearGradient id="_Linear6" x1="0" y1="0" x2="1" y2="0" gradientUnits="userSpaceOnUse" gradientTransform="matrix(1,3.46945e-18,3.46945e-18,-1,2.22045e-16,5.72524e-05)"><stop offset="0" style="stop-color:rgb(73,104,118);stop-opacity:1"/><stop offset="0.54" style="stop-color:rgb(9,53,66);stop-opacity:1"/><stop offset="1" style="stop-color:rgb(0,2,20);stop-opacity:1"/></linearGradient>
        <linearGradient id="_Linear7" x1="0" y1="0" x2="1" y2="0" gradientUnits="userSpaceOnUse" gradientTransform="matrix(1,0,0,-1,-2.22045e-16,-3.6613e-05)"><stop offset="0" style="stop-color:rgb(73,104,118);stop-opacity:1"/><stop offset="0.54" style="stop-color:rgb(9,53,66);stop-opacity:1"/><stop offset="1" style="stop-color:rgb(0,2,20);stop-opacity:1"/></linearGradient>
        <linearGradient id="_Linear8" x1="0" y1="0" x2="1" y2="0" gradientUnits="userSpaceOnUse" gradientTransform="matrix(1,0,0,-1,2.22045e-16,0.000178445)"><stop offset="0" style="stop-color:rgb(73,104,118);stop-opacity:1"/><stop offset="0.54" style="stop-color:rgb(9,53,66);stop-opacity:1"/><stop offset="1" style="stop-color:rgb(0,2,20);stop-opacity:1"/></linearGradient>
        <linearGradient id="_Linear9" x1="0" y1="0" x2="1" y2="0" gradientUnits="userSpaceOnUse" gradientTransform="matrix(1,0,0,-1,0,0.00052326)"><stop offset="0" style="stop-color:rgb(73,104,118);stop-opacity:1"/><stop offset="0.54" style="stop-color:rgb(9,53,66);stop-opacity:1"/><stop offset="1" style="stop-color:rgb(0,2,20);stop-opacity:1"/></linearGradient>
        <linearGradient id="_Linear10" x1="0" y1="0" x2="1" y2="0" gradientUnits="userSpaceOnUse" gradientTransform="matrix(1,0,0,-1,-2.22045e-16,6.13769e-05)"><stop offset="0" style="stop-color:rgb(73,104,118);stop-opacity:1"/><stop offset="0.54" style="stop-color:rgb(9,53,66);stop-opacity:1"/><stop offset="1" style="stop-color:rgb(0,2,20);stop-opacity:1"/></linearGradient>
        <linearGradient id="_Linear11" x1="0" y1="0" x2="1" y2="0" gradientUnits="userSpaceOnUse" gradientTransform="matrix(1,0,0,-1,2.22045e-16,5.95706e-05)"><stop offset="0" style="stop-color:rgb(73,104,118);stop-opacity:1"/><stop offset="0.54" style="stop-color:rgb(9,53,66);stop-opacity:1"/><stop offset="1" style="stop-color:rgb(0,2,20);stop-opacity:1"/></linearGradient>
        <linearGradient id="_Linear12" x1="0" y1="0" x2="1" y2="0" gradientUnits="userSpaceOnUse" gradientTransform="matrix(1,0,0,-1,6.93889e-18,0.00588966)"><stop offset="0" style="stop-color:rgb(41,196,243);stop-opacity:1"/><stop offset="0.5" style="stop-color:rgb(0,174,239);stop-opacity:1"/><stop offset="1" style="stop-color:rgb(0,150,218);stop-opacity:1"/></linearGradient>
        <linearGradient id="_Linear13" x1="0" y1="0" x2="1" y2="0" gradientUnits="userSpaceOnUse" gradientTransform="matrix(1,-1.73472e-18,-1.73472e-18,-1,-6.93889e-18,-0.00712432)"><stop offset="0" style="stop-color:rgb(41,196,243);stop-opacity:1"/><stop offset="0.5" style="stop-color:rgb(0,174,239);stop-opacity:1"/><stop offset="1" style="stop-color:rgb(0,150,218);stop-opacity:1"/></linearGradient>
        <linearGradient id="_Linear14" x1="0" y1="0" x2="1" y2="0" gradientUnits="userSpaceOnUse" gradientTransform="matrix(1,0,0,-1,0,1.49931e-05)"><stop offset="0" style="stop-color:rgb(243,126,95);stop-opacity:1"/><stop offset="0.5" style="stop-color:rgb(236,28,36);stop-opacity:1"/><stop offset="1" style="stop-color:rgb(207,35,42);stop-opacity:1"/></linearGradient>
        <linearGradient id="_Linear15" x1="0" y1="0" x2="1" y2="0" gradientUnits="userSpaceOnUse" gradientTransform="matrix(1,0,0,-1,0,1.49931e-05)"><stop offset="0" style="stop-color:rgb(243,126,95);stop-opacity:1"/><stop offset="0.5" style="stop-color:rgb(236,28,36);stop-opacity:1"/><stop offset="1" style="stop-color:rgb(207,35,42);stop-opacity:1"/></linearGradient>
        <linearGradient id="_Linear16" x1="0" y1="0" x2="1" y2="0" gradientUnits="userSpaceOnUse" gradientTransform="matrix(1,0,0,-1,0,8.32665e-06)"><stop offset="0" style="stop-color:rgb(209,228,165);stop-opacity:1"/><stop offset="0.5" style="stop-color:rgb(172,212,121);stop-opacity:1"/><stop offset="1" style="stop-color:rgb(118,184,63);stop-opacity:1"/></linearGradient>
    </defs>
</svg>
